<?xml version="1.0" encoding="UTF-8" standalone="no"?>
<svg
   clip-rule="evenodd"
   fill-rule="evenodd"
   stroke-linejoin="round"
   stroke-miterlimit="2"
   version="1.1"
   viewBox="-.00075354 5.3574 500 489.28"
   xml:space="preserve"
   id="svg4"
   sodipodi:docname="dhbw.svg"
   inkscape:version="1.4 (e7c3feb100, 2024-10-09)"
   xmlns:inkscape="http://www.inkscape.org/namespaces/inkscape"
   xmlns:sodipodi="http://sodipodi.sourceforge.net/DTD/sodipodi-0.dtd"
   xmlns="http://www.w3.org/2000/svg"
   xmlns:svg="http://www.w3.org/2000/svg"><defs
   id="defs4">
        
            
            
            
        
    
                
            
                
            </defs><sodipodi:namedview
   id="namedview4"
   pagecolor="#505050"
   bordercolor="#ffffff"
   borderopacity="1"
   inkscape:showpageshadow="0"
   inkscape:pageopacity="0"
   inkscape:pagecheckerboard="1"
   inkscape:deskcolor="#505050"
   inkscape:zoom="1.3064596"
   inkscape:cx="285.88715"
   inkscape:cy="235.75165"
   inkscape:window-width="1920"
   inkscape:window-height="1128"
   inkscape:window-x="0"
   inkscape:window-y="0"
   inkscape:window-maximized="1"
   inkscape:current-layer="svg4" />
    <path
   d="m 380.34241,130.92503 v 99.70394 c 0,4.96129 -4.26952,13.14632 -9.2308,18.09409 L 269.55934,350.27263 c -2.48064,2.48064 -5.02073,3.69393 -6.64747,3.69393 -1.62403,0 -2.58332,-1.21329 -2.58332,-3.69393 v 11.07911 c 0,4.96128 4.26951,9.2308 9.23079,9.2308 h 221.19592 c 4.96399,0 9.2308,-4.26952 9.2308,-9.2308 V 139.78562 c 0,-4.96128 -4.26681,-8.86059 -9.2308,-8.86059 z M 239.64843,361.35174 c 0,4.96128 -4.28302,9.2308 -9.23079,9.2308 H 120.00478 V 490.9666 c 0,2.48064 0.9728,3.69394 2.58333,3.69394 1.61052,0 3.79662,-1.2133 6.27726,-3.69394 L 230.41764,389.41704 c 4.94777,-4.96399 9.23079,-13.13281 9.23079,-18.09409 z"
   fill="#7d8990"
   fill-rule="nonzero"
   id="path1"
   style="stroke-width:2.70222;fill:#ffffff;fill-opacity:0.5" /><g
   transform="matrix(2.7022236,0,0,2.7022236,-352.19528,-1060.8988)"
   id="g2"
   style="fill:#ffffff;fill-opacity:1">
                <path
   id="path2"
   style="fill:#ffffff;fill-opacity:1"
   d="M 270.13025 394.5898 C 269.52625 394.5898 268.58934 395.03786 267.67134 395.95586 L 230.09016 433.67292 C 228.25916 435.50392 226.67429 438.39591 226.67429 440.23291 L 226.67429 444.46915 C 226.67429 442.63215 228.25417 441.05327 230.09016 441.05327 L 271.08722 441.05327 L 271.08722 395.95586 C 271.08722 395.03786 270.73425 394.5898 270.13025 394.5898 z M 133.75024 441.05327 C 131.91324 441.05327 130.33436 442.49582 130.33436 444.33182 L 130.33436 526.32593 C 130.33436 528.16193 131.91324 529.74181 133.75024 529.74181 L 174.74512 529.74181 L 174.74512 492.29868 C 174.74512 490.46669 176.19267 487.60869 178.02367 485.73869 L 215.60484 448.02236 C 216.52284 447.10935 217.45775 446.6563 218.06376 446.6563 C 218.66576 446.6563 219.02072 447.10935 219.02072 448.02236 L 219.02072 526.32593 C 219.02072 527.93195 217.8124 529.34218 216.28065 529.67025 C 217.81304 529.34273 219.02289 527.93243 219.02289 526.32593 L 219.02289 444.33182 C 219.02289 442.49582 217.44301 441.05327 215.60701 441.05327 L 133.75024 441.05327 z M 271.01566 478.68938 C 270.96795 478.95579 270.89541 479.23722 270.80461 479.52781 C 270.8952 479.23747 270.96807 478.95581 271.01566 478.68938 z M 270.07604 481.27767 C 270.06823 481.29292 270.06007 481.30795 270.05219 481.3232 C 270.06019 481.30772 270.06811 481.29315 270.07604 481.27767 z M 230.09016 522.22629 C 229.17513 523.14134 228.23854 523.58875 227.63631 523.59163 C 228.26652 523.62492 229.14261 523.17695 230.09016 522.22629 z " />
            </g><path
   d="m 269.55935,130.92503 c -4.96127,0 -9.23079,4.26681 -9.23079,9.23079 v 210.11681 c 0,2.48064 0.95929,3.69393 2.58332,3.69393 1.62674,0 4.16684,-1.21329 6.64747,-3.69393 L 371.11161,248.72306 c 4.9613,-4.96398 9.2308,-13.14632 9.2308,-18.09409 v -99.70394 z m -32.49694,15.14056 c -1.63755,0 -4.16413,1.2241 -6.64476,3.69124 L 128.86538,251.67659 c -4.94777,5.05316 -8.86059,12.77612 -8.86059,17.72659 v 101.17936 h 110.41286 c 4.96127,0 9.23079,-4.26952 9.23079,-9.2308 V 149.75683 c 0,-2.46714 -0.95929,-3.69124 -2.58603,-3.69124 z"
   fill="#8e1016"
   fill-rule="nonzero"
   id="path3"
   style="fill:#ffffff;fill-opacity:0.75;stroke-width:2.70222" />
</svg>
