<?xml version="1.0" encoding="UTF-8" standalone="no"?>
<!-- Created with Inkscape (http://www.inkscape.org/) -->

<svg
   width="210mm"
   height="32.31163mm"
   viewBox="0 0 210 32.311631"
   version="1.1"
   id="svg1"
   xml:space="preserve"
   sodipodi:docname="banner.svg"
   inkscape:version="1.4 (e7c3feb100, 2024-10-09)"
   xmlns:inkscape="http://www.inkscape.org/namespaces/inkscape"
   xmlns:sodipodi="http://sodipodi.sourceforge.net/DTD/sodipodi-0.dtd"
   xmlns:xlink="http://www.w3.org/1999/xlink"
   xmlns="http://www.w3.org/2000/svg"
   xmlns:svg="http://www.w3.org/2000/svg"><sodipodi:namedview
     id="namedview1"
     pagecolor="#505050"
     bordercolor="#ffffff"
     borderopacity="1"
     inkscape:showpageshadow="0"
     inkscape:pageopacity="0"
     inkscape:pagecheckerboard="1"
     inkscape:deskcolor="#505050"
     inkscape:document-units="mm"
     inkscape:zoom="1.4311964"
     inkscape:cx="394.77461"
     inkscape:cy="2.0961483"
     inkscape:window-width="1920"
     inkscape:window-height="1128"
     inkscape:window-x="0"
     inkscape:window-y="0"
     inkscape:window-maximized="1"
     inkscape:current-layer="svg1" /><defs
     id="defs1"><linearGradient
       id="linearGradient15"><stop
         style="stop-color:#e78643;stop-opacity:1;"
         offset="0"
         id="stop13" /><stop
         style="stop-color:#e26948;stop-opacity:1;"
         offset="0.5"
         id="stop15" /><stop
         style="stop-color:#e05b4a;stop-opacity:0.67605376;"
         offset="0.75"
         id="stop16" /><stop
         style="stop-color:#de4d4d;stop-opacity:0.25;"
         offset="1"
         id="stop14" /></linearGradient><linearGradient
       id="linearGradient11"><stop
         style="stop-color:#e78643;stop-opacity:1;"
         offset="0"
         id="stop9" /><stop
         style="stop-color:#de4d4d;stop-opacity:1;"
         offset="1"
         id="stop10" /></linearGradient><linearGradient
       id="linearGradient1"><stop
         style="stop-color:#e78643;stop-opacity:1;"
         offset="0"
         id="stop1" /><stop
         style="stop-color:#de4d4d;stop-opacity:1;"
         offset="1"
         id="stop2" /></linearGradient><linearGradient
       xlink:href="#linearGradient11"
       id="linearGradient2"
       x1="0"
       y1="10.918698"
       x2="210"
       y2="10.918698"
       gradientUnits="userSpaceOnUse"
       gradientTransform="matrix(1,0,0,1.4796466,1.9073486e-6,0)" /><linearGradient
       id="linearGradient54"><stop
         style="stop-color:#63ccd8;stop-opacity:1;"
         offset="0"
         id="stop54" /><stop
         style="stop-color:#63ccd8;stop-opacity:0;"
         offset="1"
         id="stop55" /></linearGradient><linearGradient
       id="linearGradient44"><stop
         style="stop-color:#000000;stop-opacity:0.43478373;"
         offset="0"
         id="stop43" /><stop
         style="stop-color:#e36a48;stop-opacity:0;"
         offset="1"
         id="stop44" /></linearGradient><linearGradient
       id="linearGradient37"><stop
         style="stop-color:#e78643;stop-opacity:1;"
         offset="0"
         id="stop36" /><stop
         style="stop-color:#e78643;stop-opacity:1;"
         offset="0.12197068"
         id="stop38" /><stop
         style="stop-color:#de4d4d;stop-opacity:1;"
         offset="1"
         id="stop37" /></linearGradient><linearGradient
       id="linearGradient35"><stop
         style="stop-color:#000000;stop-opacity:0.43478373;"
         offset="0.56926733"
         id="stop34" /><stop
         style="stop-color:#e36a48;stop-opacity:0;"
         offset="0.85184592"
         id="stop35" /></linearGradient><linearGradient
       id="linearGradient33"><stop
         style="stop-color:#000000;stop-opacity:0.30383381;"
         offset="0.40095311"
         id="stop32" /><stop
         style="stop-color:#e36a48;stop-opacity:0;"
         offset="1"
         id="stop33" /></linearGradient><linearGradient
       id="linearGradient24"><stop
         style="stop-color:#9e9e9e;stop-opacity:1;"
         offset="0.22264741"
         id="stop23" /><stop
         style="stop-color:#585858;stop-opacity:1;"
         offset="1"
         id="stop24" /></linearGradient><linearGradient
       id="linearGradient12"><stop
         style="stop-color:#de4d4d;stop-opacity:1;"
         offset="0.22264741"
         id="stop11" /><stop
         style="stop-color:#de4d4d;stop-opacity:1;"
         offset="1"
         id="stop12" /></linearGradient><linearGradient
       id="linearGradient8"><stop
         style="stop-color:#e78643;stop-opacity:1;"
         offset="0.22264741"
         id="stop7" /><stop
         style="stop-color:#de4d4d;stop-opacity:1;"
         offset="1"
         id="stop8" /></linearGradient><linearGradient
       id="linearGradient6"><stop
         style="stop-color:#e78643;stop-opacity:1;"
         offset="0.30296028"
         id="stop5" /><stop
         style="stop-color:#de4d4d;stop-opacity:1;"
         offset="1"
         id="stop6" /></linearGradient><linearGradient
       xlink:href="#linearGradient1"
       id="linearGradient2-6"
       x1="101.77094"
       y1="179.32358"
       x2="101.77094"
       y2="205.16226"
       gradientUnits="userSpaceOnUse"
       gradientTransform="matrix(1.0559807,0,0,1.0624696,-6.6656936,-11.686495)" /><linearGradient
       xlink:href="#linearGradient1"
       id="linearGradient4"
       gradientUnits="userSpaceOnUse"
       gradientTransform="matrix(1.1570031,0,0,1.1641128,-16.946658,-22.165795)"
       x1="101.77111"
       y1="212.45471"
       x2="101.77094"
       y2="205.16225" /><radialGradient
       xlink:href="#linearGradient6"
       id="radialGradient5"
       cx="100.80283"
       cy="179.40132"
       fx="100.80283"
       fy="179.40132"
       r="54.805958"
       gradientTransform="matrix(-1.3618099,-0.00342284,9.9014107e-4,-0.39393815,237.89949,266.09404)"
       gradientUnits="userSpaceOnUse" /><radialGradient
       xlink:href="#linearGradient8"
       id="radialGradient6"
       cx="100.51147"
       cy="208.29292"
       fx="100.51147"
       fy="208.29292"
       r="60.049076"
       gradientTransform="matrix(1.1541981,0,0,0.25045739,-15.736634,157.48698)"
       gradientUnits="userSpaceOnUse" /><linearGradient
       xlink:href="#linearGradient12"
       id="linearGradient10"
       x1="86.746925"
       y1="170.12222"
       x2="104.54833"
       y2="171.44501"
       gradientUnits="userSpaceOnUse" /><linearGradient
       xlink:href="#linearGradient37"
       id="linearGradient14"
       x1="96.732697"
       y1="128.62112"
       x2="99.121155"
       y2="149.37215"
       gradientUnits="userSpaceOnUse"
       gradientTransform="matrix(1.1285738,0,0,1.6059791,-9.0982796,-88.857856)" /><linearGradient
       xlink:href="#linearGradient8"
       id="linearGradient16"
       x1="104.54832"
       y1="133.25386"
       x2="118.0173"
       y2="150.3707"
       gradientUnits="userSpaceOnUse"
       gradientTransform="matrix(1.1285738,0,0,1.1285738,-9.8463636,-18.6062)" /><linearGradient
       xlink:href="#linearGradient8"
       id="linearGradient18"
       x1="109.09007"
       y1="99.135513"
       x2="116.80418"
       y2="129.44072"
       gradientUnits="userSpaceOnUse" /><linearGradient
       xlink:href="#linearGradient8"
       id="linearGradient20"
       x1="64.072426"
       y1="105.55778"
       x2="91.260551"
       y2="137.9377"
       gradientUnits="userSpaceOnUse" /><linearGradient
       xlink:href="#linearGradient24"
       id="linearGradient21"
       gradientUnits="userSpaceOnUse"
       gradientTransform="matrix(0.7221322,0,0,0.7645588,-93.115257,-249.86602)"
       x1="104.54832"
       y1="133.25386"
       x2="118.0173"
       y2="150.3707" /><linearGradient
       xlink:href="#linearGradient24"
       id="linearGradient22"
       gradientUnits="userSpaceOnUse"
       gradientTransform="matrix(-0.66522812,0.28097406,-0.36992465,-1.0231597,186.47582,243.6924)"
       x1="96.732697"
       y1="128.62112"
       x2="99.121155"
       y2="149.37215" /><linearGradient
       xlink:href="#linearGradient24"
       id="linearGradient25"
       gradientUnits="userSpaceOnUse"
       gradientTransform="matrix(0.38597475,0,0,0.40865148,-53.958247,-199.85523)"
       x1="104.54832"
       y1="133.25386"
       x2="118.0173"
       y2="150.3707" /><linearGradient
       xlink:href="#linearGradient24"
       id="linearGradient26"
       gradientUnits="userSpaceOnUse"
       gradientTransform="matrix(-0.35555991,0.15017872,-0.19772221,-0.5468719,126.07266,190.97541)"
       x1="96.732697"
       y1="128.62112"
       x2="99.121155"
       y2="149.37215" /><radialGradient
       xlink:href="#linearGradient44"
       id="radialGradient31"
       cx="102.60744"
       cy="192.12006"
       fx="102.60744"
       fy="192.12006"
       r="14.872"
       gradientTransform="matrix(1.8684591,0,0,0.70368821,-89.110363,56.927423)"
       gradientUnits="userSpaceOnUse" /><radialGradient
       xlink:href="#linearGradient33"
       id="radialGradient32"
       gradientUnits="userSpaceOnUse"
       gradientTransform="matrix(0.81238439,0,0,0.70368821,37.625935,-50.136391)"
       cx="102.60744"
       cy="192.12006"
       fx="102.60744"
       fy="192.12006"
       r="14.872" /><radialGradient
       xlink:href="#linearGradient35"
       id="radialGradient33"
       gradientUnits="userSpaceOnUse"
       gradientTransform="matrix(4.9926241,0,0,1.109008,-411.52069,-10.721401)"
       cx="102.60744"
       cy="192.12006"
       fx="102.60744"
       fy="192.12006"
       r="14.872" /><linearGradient
       xlink:href="#linearGradient44"
       id="linearGradient42"
       gradientUnits="userSpaceOnUse"
       x1="124.65702"
       y1="135.64372"
       x2="122.17848"
       y2="118.50678" /><radialGradient
       xlink:href="#linearGradient44"
       id="radialGradient51"
       cx="89.710388"
       cy="119.3876"
       fx="89.710388"
       fy="119.3876"
       r="18.131968"
       gradientTransform="matrix(1.7346259,4.6675442e-8,0,0.71977224,-65.220285,41.171468)"
       gradientUnits="userSpaceOnUse" /><linearGradient
       xlink:href="#linearGradient54"
       id="linearGradient55"
       x1="34.026402"
       y1="139.0815"
       x2="36.175564"
       y2="144.68361"
       gradientUnits="userSpaceOnUse"
       spreadMethod="reflect" /><linearGradient
       xlink:href="#linearGradient54"
       id="linearGradient3"
       gradientUnits="userSpaceOnUse"
       x1="34.026402"
       y1="139.0815"
       x2="36.175564"
       y2="144.68361"
       spreadMethod="reflect" /><linearGradient
       xlink:href="#linearGradient54"
       id="linearGradient5"
       gradientUnits="userSpaceOnUse"
       x1="34.026402"
       y1="139.0815"
       x2="36.175564"
       y2="144.68361"
       spreadMethod="reflect" /><linearGradient
       xlink:href="#linearGradient15"
       id="linearGradient13"
       gradientUnits="userSpaceOnUse"
       x1="0"
       y1="10.918698"
       x2="210"
       y2="10.918698"
       gradientTransform="matrix(1,0,0,1.4796467,-3.6015717e-6,1.6040039e-6)" /></defs><rect
     style="fill:url(#linearGradient2);stroke:none;stroke-width:1.82461;stroke-linejoin:round;paint-order:stroke fill markers"
     id="rect1"
     width="210"
     height="32.31163"
     x="1.9073486e-06"
     y="0"
     ry="0" /><g
     fill="currentColor"
     id="g2"
     transform="matrix(0.58309977,0,0,0.58309977,156.76248,16.533718)"
     style="fill:#ffffff;fill-opacity:1"><path
       d="M 14,6 H 6 v 8 h 8 z"
       id="path1-43"
       style="fill:#ffffff;fill-opacity:1" /><path
       fill-rule="evenodd"
       d="M 9.25,3 V 1.75 a 0.75,0.75 0 0 1 1.5,0 V 3 h 1.5 V 1.75 a 0.75,0.75 0 0 1 1.5,0 V 3 h 0.5 A 2.75,2.75 0 0 1 17,5.75 v 0.5 h 1.25 a 0.75,0.75 0 0 1 0,1.5 H 17 v 1.5 h 1.25 a 0.75,0.75 0 0 1 0,1.5 H 17 v 1.5 h 1.25 a 0.75,0.75 0 0 1 0,1.5 H 17 v 0.5 A 2.75,2.75 0 0 1 14.25,17 h -0.5 v 1.25 a 0.75,0.75 0 0 1 -1.5,0 V 17 h -1.5 v 1.25 a 0.75,0.75 0 0 1 -1.5,0 V 17 h -1.5 v 1.25 a 0.75,0.75 0 0 1 -1.5,0 V 17 H 5.75 A 2.75,2.75 0 0 1 3,14.25 v -0.5 H 1.75 a 0.75,0.75 0 0 1 0,-1.5 H 3 v -1.5 H 1.75 a 0.75,0.75 0 0 1 0,-1.5 H 3 V 7.75 H 1.75 a 0.75,0.75 0 0 1 0,-1.5 H 3 V 5.75 A 2.75,2.75 0 0 1 5.75,3 h 0.5 V 1.75 a 0.75,0.75 0 0 1 1.5,0 V 3 Z M 4.5,5.75 C 4.5,5.06 5.06,4.5 5.75,4.5 h 8.5 c 0.69,0 1.25,0.56 1.25,1.25 v 8.5 c 0,0.69 -0.56,1.25 -1.25,1.25 H 5.75 C 5.06,15.5 4.5,14.94 4.5,14.25 Z"
       clip-rule="evenodd"
       id="path2"
       style="fill:#ffffff;fill-opacity:1" /></g><path
     fill="currentColor"
     d="m 189.13214,21.475695 a 1.509178,1.509178 0 0 0 -0.44294,-0.203355 0.2967044,0.2967044 0 0 0 -0.0186,-0.445477 1.5085743,1.5085743 0 0 0 -2.31768,1.788962 0.29489338,0.29489338 0 0 0 0.42641,0.131079 c 0.002,0.16248 0.03,0.325357 0.0851,0.481799 l -0.19145,-0.0055 c -0.19086,-0.0052 -0.36419,-0.09637 -0.48038,-0.246907 l -0.40574,-0.52566 c -0.0904,-0.117079 -0.22248,-0.194316 -0.37063,-0.213418 l -0.28789,-0.03706 a 0.22758404,0.22758404 0 0 0 -0.25327,0.195496 c -0.0157,0.122756 0.0728,0.237444 0.19549,0.253272 l 0.28551,0.03891 c 0.0297,0.0039 0.0516,0.01737 0.07,0.04126 l 0.40575,0.525662 c 0.19918,0.258051 0.50015,0.410851 0.82388,0.420248 l 0.47002,0.01468 0.0103,0.01182 -0.1102,0.599762 -0.19559,-0.02518 a 1.1228284,1.1228284 0 0 0 -0.84267,0.2272 l -0.16249,0.125414 c -0.098,0.07561 -0.11649,0.219564 -0.0408,0.317526 0.0756,0.09796 0.21961,0.116467 0.31753,0.04087 l 0.16249,-0.125415 c 0.14574,-0.112494 0.32619,-0.160275 0.50824,-0.136836 l 0.17165,0.02231 -0.0986,0.538202 a 5.0346178,5.0346178 0 0 0 0.97334,4.00113 1.2876307,1.2876307 0 0 0 1.80133,0.229339 1.2767646,1.2767646 0 0 0 0.45252,-0.673392 l 0.42385,-1.527086 0.007,0.0013 0.0297,0.0039 a 1.4578659,1.4578659 0 0 0 1.62953,-1.257799 l 0.003,-0.02961 4.8e-4,-0.0068 1.58441,-0.02304 c 0.27888,-0.0033 0.54718,-0.09826 0.76628,-0.267381 a 1.2870269,1.2870269 0 0 0 0.23646,-1.798045 l -3.7e-4,-4.78e-4 a 5.0466911,5.0466911 0 0 0 -3.62535,-1.957172 l -0.56096,-0.04209 0.0201,-0.157714 c 0.0234,-0.182047 0.11535,-0.344515 0.26111,-0.457019 l 0.16249,-0.125415 c 0.098,-0.07561 0.11648,-0.219556 0.0408,-0.317517 -0.0756,-0.09796 -0.2196,-0.116469 -0.31752,-0.04089 l -0.16248,0.125414 c -0.24133,0.186274 -0.39638,0.454664 -0.43325,0.757647 l -0.0232,0.181858 -0.59336,-0.04455 -0.0103,-0.01489 0.10187,-0.456862 a 1.0775531,1.0775531 0 0 0 -0.19805,-0.903496 l -0.40574,-0.525659 c -0.0185,-0.0239 -0.026,-0.04859 -0.0221,-0.07821 l 0.0371,-0.287885 c 0.0157,-0.122756 -0.0728,-0.237445 -0.1955,-0.253272 a 0.22758404,0.22758404 0 0 0 -0.25327,0.195495 l -0.0371,0.287885 c -0.019,0.148171 0.0223,0.295523 0.1126,0.412602 l 0.40575,0.52566 c 0.11619,0.150531 0.16052,0.341273 0.11718,0.527241 z m 0.56074,0.698847 0.48445,0.03633 2.70337,3.502331 -0.75396,0.01118 a 1.8925092,1.8925092 0 0 1 -1.51949,-0.733609 l -1.08075,-1.400182 a 1.5121963,1.5121963 0 0 0 0.16638,-1.416059 m -2.29522,1.771627 a 1.5121963,1.5121963 0 0 0 1.41203,0.197719 l 1.08074,1.400167 a 1.8894909,1.8894909 0 0 1 0.32481,1.655757 l -0.20178,0.726548 -2.70337,-3.502331 z m 5.86012,1.761573 -1.29968,-1.683785 2.69557,0.347051 a 0.9870024,0.9870024 0 0 1 -0.32003,1.125138 0.97492898,0.97492898 0 0 1 -0.58538,0.20438 z m -2.15136,-3.427389 a 4.7448556,4.7448556 0 0 1 3.34481,1.759236 l -2.75484,-0.354683 -1.1145,-1.443893 z m -1.19395,6.009159 -0.13116,0.472244 1.8e-4,2.39e-4 a 0.97492898,0.97492898 0 0 1 -0.34605,0.514947 0.98549322,0.98549322 0 0 1 -1.16964,0.02393 l 0.347,-2.695146 z m -1.91624,0.73176 a 4.7297638,4.7297638 0 0 1 -0.85425,-3.680871 l 0.095,-0.517142 1.1145,1.443893 z m -1.45606,-6.780287 a 1.0896265,1.0896265 0 0 1 0.23134,-0.976236 l 0.002,-0.0014 0.0638,0.08267 c 0.17835,0.231052 0.13422,0.562143 -0.0951,0.739196 z m 1.71796,-1.326048 -0.20167,0.155659 c -0.22938,0.177053 -0.56085,0.135879 -0.73919,-0.09518 l -0.0638,-0.08267 0.002,-0.0014 a 1.0896265,1.0896265 0 0 1 1.00318,0.02372"
     id="path1-93"
     style="fill:#ffffff;fill-opacity:1;stroke-width:0.301835" /><path
     fill="currentColor"
     d="m 133.47183,4.636348 a 1.509178,1.509178 0 0 1 0.44294,-0.203355 0.2967044,0.2967044 0 0 1 0.0186,-0.445477 1.5085743,1.5085743 0 0 1 2.31768,1.788962 0.29489338,0.29489338 0 0 1 -0.42641,0.131079 c -0.002,0.16248 -0.03,0.325357 -0.0851,0.481799 l 0.19145,-0.0055 c 0.19086,-0.0052 0.36419,-0.09637 0.48038,-0.246907 l 0.40574,-0.52566 c 0.0904,-0.117079 0.22248,-0.194316 0.37063,-0.213418 l 0.28789,-0.03706 a 0.22758404,0.22758404 0 0 1 0.25327,0.195496 c 0.0157,0.122756 -0.0728,0.237444 -0.19549,0.253272 l -0.28551,0.03891 c -0.0297,0.0039 -0.0516,0.01737 -0.07,0.04126 l -0.40575,0.525662 c -0.19918,0.258051 -0.50015,0.410851 -0.82388,0.420248 l -0.47002,0.01468 -0.0103,0.01182 0.1102,0.599762 0.19559,-0.02518 a 1.1228284,1.1228284 0 0 1 0.84267,0.2272 l 0.16249,0.125414 c 0.098,0.07561 0.11649,0.219564 0.0408,0.317526 -0.0756,0.09796 -0.21961,0.116467 -0.31753,0.04087 L 136.33968,8.022336 C 136.19394,7.909842 136.01349,7.862061 135.83144,7.8855 l -0.17165,0.02231 0.0986,0.538202 a 5.0346178,5.0346178 0 0 1 -0.97334,4.00113 1.2876307,1.2876307 0 0 1 -1.80133,0.229339 1.2767646,1.2767646 0 0 1 -0.45252,-0.673392 l -0.42385,-1.527086 -0.007,0.0013 -0.0297,0.0039 a 1.4578659,1.4578659 0 0 1 -1.62953,-1.2577994 l -0.003,-0.02961 -4.8e-4,-0.0068 -1.58441,-0.02304 c -0.27888,-0.0033 -0.54718,-0.09826 -0.76628,-0.2673806 a 1.2870269,1.2870269 0 0 1 -0.23646,-1.798045 l 3.7e-4,-4.78e-4 a 5.0466911,5.0466911 0 0 1 3.62535,-1.957172 l 0.56096,-0.04209 -0.0201,-0.157714 c -0.0234,-0.182047 -0.11535,-0.344515 -0.26111,-0.457019 L 131.59347,4.35864 c -0.098,-0.07561 -0.11648,-0.219556 -0.0408,-0.317517 0.0756,-0.09796 0.2196,-0.116469 0.31752,-0.04089 l 0.16248,0.125414 c 0.24133,0.186274 0.39638,0.454664 0.43325,0.757647 l 0.0232,0.181858 0.59336,-0.04455 0.0103,-0.01489 -0.10187,-0.456862 a 1.0775531,1.0775531 0 0 1 0.19805,-0.903496 l 0.40574,-0.525659 c 0.0185,-0.0239 0.026,-0.04859 0.0221,-0.07821 L 133.5797,2.7536 c -0.0157,-0.122756 0.0728,-0.237445 0.1955,-0.253272 a 0.22758404,0.22758404 0 0 1 0.25327,0.195495 l 0.0371,0.287885 c 0.019,0.148171 -0.0223,0.295523 -0.1126,0.412602 l -0.40575,0.52566 c -0.11619,0.150531 -0.16052,0.341273 -0.11718,0.527241 z m -0.56074,0.698847 -0.48445,0.03633 -2.70337,3.502331 0.75396,0.01118 a 1.8925092,1.8925092 0 0 0 1.51949,-0.733609 l 1.08075,-1.400182 a 1.5121963,1.5121963 0 0 1 -0.16638,-1.416059 m 2.29522,1.771627 a 1.5121963,1.5121963 0 0 1 -1.41203,0.197719 l -1.08074,1.400167 a 1.8894909,1.8894909 0 0 0 -0.32481,1.655757 l 0.20178,0.726548 2.70337,-3.502331 z m -5.86012,1.761573 1.29968,-1.683785 -2.69557,0.347051 a 0.9870024,0.9870024 0 0 0 0.32003,1.125138 0.97492898,0.97492898 0 0 0 0.58538,0.20438 z m 2.15136,-3.427389 a 4.7448556,4.7448556 0 0 0 -3.34481,1.759236 l 2.75484,-0.354683 1.1145,-1.443893 z m 1.19395,6.009159 0.13116,0.472244 -1.8e-4,2.39e-4 a 0.97492898,0.97492898 0 0 0 0.34605,0.514947 0.98549322,0.98549322 0 0 0 1.16964,0.02393 l -0.347,-2.6951462 z m 1.91624,0.73176 a 4.7297638,4.7297638 0 0 0 0.85425,-3.680871 l -0.095,-0.517142 -1.1145,1.4438926 z m 1.45606,-6.780287 a 1.0896265,1.0896265 0 0 0 -0.23134,-0.976236 l -0.002,-0.0014 -0.0638,0.08267 c -0.17835,0.231052 -0.13422,0.562143 0.0951,0.739196 z m -1.71796,-1.326048 0.20167,0.155659 c 0.22938,0.177053 0.56085,0.135879 0.73919,-0.09518 l 0.0638,-0.08267 -0.002,-0.0014 a 1.0896265,1.0896265 0 0 0 -1.00318,0.02372"
     id="path4"
     style="fill:#ffffff;fill-opacity:1;stroke-width:0.301835" /><path
     fill="currentColor"
     fill-rule="evenodd"
     d="m 204.43697,5.6736379 a 0.2917478,0.2917478 0 0 1 0.0864,0.4034335 l -1.34482,2.0783334 c 0.0275,0.1282724 0.0251,0.2887184 -0.003,0.4725642 l 1.31549,-0.08356 0.44838,-0.6929414 a 0.2917478,0.2917478 0 0 1 0.19066,-0.1282173 l 1.38556,-0.2616655 a 0.29178998,0.29178998 0 0 1 0.1085,0.5734 l -1.26286,0.2385403 -0.46043,0.7115562 a 0.2917478,0.2917478 0 0 1 -0.22648,0.132496 l -1.63065,0.103419 q -0.0146,9.64e-4 -0.0283,4.1e-4 c -0.13641,0.375639 -0.34534,0.7947037 -0.61669,1.2140437 q -0.15295,0.23637 -0.31425,0.446481 l 0.62741,2.245623 a 0.2917478,0.2917478 0 0 1 -0.0729,0.282953 l -0.73084,0.743344 0.49646,0.797662 a 0.29182101,0.29182101 0 1 1 -0.49555,0.308312 l -0.61762,-0.992814 a 0.2917478,0.2917478 0 0 1 0.0398,-0.358556 l 0.77306,-0.786561 -0.47723,-1.709212 q -0.13201,0.134196 -0.26035,0.245056 l 0.0641,1.042231 a 0.2917478,0.2917478 0 0 1 -0.11156,0.247512 l -0.88702,0.695792 0.0129,1.417772 a 0.2917478,0.2917478 0 0 1 -0.58346,0.0054 l -0.0141,-1.561396 a 0.2917478,0.2917478 0 0 1 0.11163,-0.232181 l 0.87967,-0.68978 -0.034,-0.555001 c -0.19738,0.08322 -0.36646,0.09266 -0.4882,0.01388 -0.12173,-0.07876 -0.18225,-0.237114 -0.18736,-0.451013 l -0.51992,0.196644 -0.26902,1.084907 a 0.2917478,0.2917478 0 0 1 -0.16606,0.196957 l -1.43009,0.626913 a 0.29186829,0.29186829 0 0 1 -0.23439,-0.534608 l 1.29884,-0.569018 0.27101,-1.094399 a 0.2917478,0.2917478 0 0 1 0.18034,-0.203004 l 0.97696,-0.368633 q 0.0483,-0.162677 0.11686,-0.337906 l -1.75493,0.264865 -0.4005,1.027629 a 0.2917478,0.2917478 0 0 1 -0.31074,0.183262 l -1.15871,-0.156582 a 0.29182922,0.29182922 0 0 1 0.0782,-0.578396 l 0.93106,0.126037 0.37837,-0.971413 a 0.2917478,0.2917478 0 0 1 0.22842,-0.182317 l 2.30569,-0.3480677 a 7.0019473,7.0019473 0 0 1 0.27836,-0.469358 c 0.2715,-0.419585 0.56802,-0.781629 0.85478,-1.0599907 a 0.2917478,0.2917478 0 0 1 -0.0112,-0.026045 l -0.57383,-1.529866 a 0.2917478,0.2917478 0 0 1 0.0281,-0.2608738 l 0.46042,-0.7115577 -0.29986,-1.2497275 a 0.29178808,0.29178808 0 0 1 0.56751,-0.1359579 l 0.32904,1.371118 a 0.2917478,0.2917478 0 0 1 -0.0388,0.2264584 l -0.44853,0.6931862 0.46278,1.2342206 c 0.15658,-0.1023277 0.3022,-0.1700283 0.43048,-0.1975233 l 1.3445,-2.0778417 a 0.2917478,0.2917478 0 0 1 0.40344,-0.086449 m -5.73612,2.8908129 C 197.97848,8.096402 197.8188,7.7293313 197.7909,7.5538636 l -0.003,-0.025461 2.66724,1.2584987 a 1.4587391,1.4587391 0 0 1 -0.23489,0.09717 c -0.34899,0.108116 -0.85337,0.110495 -1.51813,-0.3196564 m -1.1832,-1.8076606 c -0.37442,0.3369976 -0.72608,1.2676601 0.8658,2.29771 1.1958,0.773762 2.1354,0.466091 2.68536,0.0227 0.1822,-0.1462 0.32155,-0.30797 0.41348,-0.4500352 z m 6.63152,5.3335087 c 0.72332,0.468034 1.12358,0.463283 1.29506,0.416828 q 0.0126,-0.0033 0.0246,-0.0074 l -2.24088,-1.917375 q -0.008,0.123329 0.008,0.254078 c 0.0444,0.362659 0.24888,0.823714 0.91365,1.253865 m 2.1335,0.33802 c -0.15399,0.479639 -0.85884,1.18176 -2.45072,0.151708 -1.19582,-0.773767 -1.30015,-1.756935 -1.12103,-2.440281 a 1.9838851,1.9838851 0 0 1 0.2411,-0.5615747 z"
     clip-rule="evenodd"
     id="path1-2"
     style="fill:#ffffff;fill-opacity:1;stroke-width:0.291747" /><path
     fill="currentColor"
     d="M 172.7732,4.7007731 V 6.510011 h 4.51322 v 2.4742742 h 1.48911 c -0.0759,2.4643218 -0.52035,4.1383548 -1.10549,5.1755508 -0.32922,0.583522 -0.68991,0.966298 -1.0625,1.199697 -1.00563,-0.561106 -1.85155,-1.84265 -1.85155,-3.365079 h -0.88574 c 0,2.524034 1.84787,4.627143 3.91282,4.553498 1.03245,-0.03683 2.05857,-0.673328 2.78052,-1.952974 0.69134,-1.225337 1.14496,-3.038699 1.22031,-5.6106928 h 1.1061 v -4.28356 H 172.7732 Z M 189.22302,4.88645 v 0.8511382 h -5.44734 v 2.14216 h 5.44721 v 0.8509957 h 0.88572 V 7.8797482 h 1.11511 v 0.8509957 h 0.88559 V 7.8797482 h 0.92062 V 5.7375415 h -0.92047 V 4.8864022 h -0.88574 v 0.8511393 h -1.11501 V 4.8864022 h -0.88573 z M 170.49323,7.3957923 V 11.37065 h 5.9076 V 7.3956978 h -5.90765 z m 9.16855,1.5885407 h 1.23596 c -0.0759,2.464322 -0.52035,4.138307 -1.10553,5.175549 -0.61324,1.086955 -1.33548,1.477787 -2.04075,1.502953 -0.19359,0.0068 -0.39041,-0.01896 -0.58598,-0.07232 0.41647,-0.119187 0.82744,-0.392397 1.21244,-0.885924 0.0213,-0.03602 0.0426,-0.0725 0.0635,-0.109571 0.69143,-1.225385 1.14496,-3.038699 1.22031,-5.6107407 z m -7.91359,3.010169 c 0,2.524035 1.84776,4.627144 3.91273,4.553497 a 2.6823196,2.6823196 0 0 0 0.42225,-0.04928 c -1.09758,-0.202975 -2.07501,-1.000515 -2.66844,-2.106426 -0.46931,-0.639538 -0.78081,-1.474329 -0.78081,-2.397833 z"
     id="path1-4"
     style="fill:#ffffff;fill-opacity:1;stroke-width:0.0473907" /><path
     fill="currentColor"
     fill-rule="evenodd"
     d="m 117.09989,17.144485 a 0.19231336,0.19231336 0 0 1 -0.057,-0.265933 l 0.88648,-1.36999 c -0.0181,-0.08455 -0.0165,-0.190316 0.002,-0.311503 l -0.86714,0.05508 -0.29556,0.456771 a 0.19231336,0.19231336 0 0 1 -0.12568,0.08452 l -0.91333,0.172483 a 0.19234116,0.19234116 0 0 1 -0.0715,-0.377972 l 0.83245,-0.15724 0.30351,-0.469041 a 0.19231336,0.19231336 0 0 1 0.14929,-0.08734 l 1.07488,-0.06817 q 0.01,-6.35e-4 0.0187,-2.7e-4 c 0.0899,-0.247612 0.22764,-0.52385 0.4065,-0.800269 q 0.10083,-0.15581 0.20715,-0.29431 l -0.41357,-1.480263 a 0.19231336,0.19231336 0 0 1 0.048,-0.186516 l 0.48175,-0.489995 -0.32725,-0.5258 a 0.19236162,0.19236162 0 1 1 0.32665,-0.203232 l 0.40712,0.65444 a 0.19231336,0.19231336 0 0 1 -0.0262,0.236352 l -0.50958,0.518482 0.31457,1.126673 q 0.087,-0.08846 0.17162,-0.161535 l -0.0422,-0.687015 a 0.19231336,0.19231336 0 0 1 0.0735,-0.163154 l 0.5847,-0.45865 -0.009,-0.934562 a 0.19231336,0.19231336 0 0 1 0.3846,-0.0036 l 0.009,1.029235 a 0.19231336,0.19231336 0 0 1 -0.0736,0.153049 l -0.57986,0.454687 0.0224,0.365843 c 0.13011,-0.05486 0.24157,-0.06108 0.32181,-0.0091 0.0803,0.05192 0.12014,0.1563 0.12351,0.297297 l 0.34272,-0.129623 0.17733,-0.715145 a 0.19231336,0.19231336 0 0 1 0.10946,-0.12983 l 0.94268,-0.413246 a 0.19239278,0.19239278 0 0 1 0.15451,0.352401 l -0.85617,0.375083 -0.17864,0.721403 a 0.19231336,0.19231336 0 0 1 -0.11888,0.133815 l -0.64399,0.242994 q -0.0318,0.107233 -0.077,0.22274 l 1.15681,-0.174593 0.264,-0.677389 a 0.19231336,0.19231336 0 0 1 0.20483,-0.120802 l 0.7638,0.103215 a 0.19236703,0.19236703 0 0 1 -0.0515,0.381266 l -0.61373,-0.08308 -0.24941,0.640333 a 0.19231336,0.19231336 0 0 1 -0.15057,0.120179 l -1.51986,0.229438 a 4.6155207,4.6155207 0 0 1 -0.18349,0.30939 c -0.17897,0.276581 -0.37443,0.515232 -0.56345,0.698722 a 0.19231336,0.19231336 0 0 1 0.007,0.01716 l 0.37826,1.008453 a 0.19231336,0.19231336 0 0 1 -0.0185,0.171961 l -0.30349,0.469042 0.19766,0.823792 a 0.19233991,0.19233991 0 0 1 -0.37409,0.08962 l -0.2169,-0.903809 a 0.19231336,0.19231336 0 0 1 0.0256,-0.149276 l 0.29566,-0.456932 -0.30506,-0.81357 c -0.10321,0.06745 -0.1992,0.112079 -0.28376,0.130203 l -0.88626,1.369665 a 0.19231336,0.19231336 0 0 1 -0.26594,0.05699 m 3.78112,-1.905556 c 0.47678,0.308513 0.58204,0.550478 0.60043,0.666142 l 0.002,0.01678 -1.75819,-0.829574 a 0.96156686,0.96156686 0 0 1 0.15484,-0.06405 c 0.23004,-0.07127 0.56252,-0.07284 1.00071,0.21071 m 0.77994,1.191568 c 0.24681,-0.222141 0.47862,-0.835612 -0.57071,-1.514597 -0.78825,-0.510046 -1.40761,-0.307236 -1.77013,-0.01496 -0.1201,0.09637 -0.21196,0.203006 -0.27256,0.296652 z m -4.37134,-3.515725 c -0.4768,-0.308517 -0.74064,-0.305385 -0.85368,-0.274763 q -0.008,0.0022 -0.0162,0.0049 l 1.47713,1.263889 q 0.005,-0.0813 -0.005,-0.167483 c -0.0293,-0.239056 -0.16405,-0.542973 -0.60226,-0.826518 m -1.40635,-0.222815 c 0.10151,-0.316167 0.56613,-0.778989 1.61546,-0.100003 0.78826,0.51005 0.85703,1.158131 0.73896,1.608577 a 1.3077309,1.3077309 0 0 1 -0.15893,0.370177 z"
     clip-rule="evenodd"
     id="path5"
     style="fill:#ffffff;fill-opacity:1;stroke-width:0.192313" /><path
     fill="currentColor"
     d="m 139.44028,16.461996 c -0.93156,0.0052 -1.80711,0.69294 -2.44677,1.922899 -0.002,0.0033 -0.003,0.0061 -0.006,0.0095 l -3.99164,6.98528 -0.007,0.01149 c -0.74305,1.168885 -0.89976,2.270835 -0.43897,3.080395 0.4605,0.809101 1.48491,1.225286 2.85519,1.157525 h 8.09602 c 1.37025,0.06773 2.39464,-0.348424 2.8552,-1.157586 0.46085,-0.809714 0.30444,-1.912151 -0.43897,-3.081342 l -0.007,-0.01046 -4.03463,-7.007145 c -0.002,-0.0045 -0.006,-0.0079 -0.008,-0.0124 -0.62639,-1.222568 -1.49788,-1.903171 -2.42858,-1.898071 z m -0.008,0.575465 c 0.41448,-0.004 0.80959,0.197726 1.16513,0.542944 0.35294,0.342836 0.68378,0.832522 1.01052,1.471565 l 3.56331,6.187447 0.007,0.01046 c 0.36848,0.578182 0.62814,1.099995 0.76051,1.574567 0.1332,0.477595 0.13865,0.922209 -0.0459,1.295918 -0.18444,0.373708 -0.54874,0.636691 -1.03061,0.784397 -0.47866,0.14676 -1.08589,0.194916 -1.84461,0.156501 h -7.13991 c -0.69929,0.03533 -1.28145,-0.0048 -1.75299,-0.137416 -0.47516,-0.133537 -0.85119,-0.37093 -1.06207,-0.73001 -0.21101,-0.359113 -0.23684,-0.806171 -0.11741,-1.295003 0.11866,-0.485657 0.37761,-1.029028 0.77196,-1.648008 l 3.52608,-6.166529 c 0.002,-0.0037 0.003,-0.0068 0.006,-0.01046 0.33133,-0.637913 0.66479,-1.129767 1.01916,-1.476238 0.35645,-0.348516 0.74968,-0.556165 1.16422,-0.560196 z m 0.006,0.570671 c -0.22911,0.0022 -0.4814,0.114758 -0.77105,0.397894 -0.28963,0.283198 -0.60126,0.731172 -0.91701,1.340777 l -0.003,0.0057 -0.002,0.0047 -2.1595,3.776998 1.88183,0.0057 -0.95427,-0.550638 0.28533,-0.494329 1.55933,0.900834 a 1.4657637,1.4657637 0 0 1 0.12596,-0.123063 l -0.9018,-1.561222 0.49429,-0.285335 0.90276,1.563115 c 0.0545,-0.01789 0.11089,-0.03176 0.16795,-0.04296 v -1.807309 h 0.57064 v 1.813119 c 0.0557,0.012 0.10997,0.02736 0.16319,0.0458 l 0.90746,-1.571727 0.49338,0.285335 -0.91039,1.57646 a 1.435227,1.435227 0 0 1 0.11647,0.117353 l 1.57835,-0.910392 0.28536,0.494329 -1.57837,0.911307 a 1.4046903,1.4046903 0 0 1 0.043,0.159403 h 1.8217 v 0.570671 h -1.8217 a 1.4046903,1.4046903 0 0 1 -0.043,0.160317 l 1.57835,0.910362 -0.28534,0.493352 -1.57642,-0.909384 a 1.4657637,1.4657637 0 0 1 -0.11739,0.1183 l 0.90945,1.575512 -0.49335,0.285335 -0.90667,-1.569863 a 1.4046903,1.4046903 0 0 1 -0.16414,0.0458 v 1.810309 h -0.57066 v -1.804538 a 1.4046903,1.4046903 0 0 1 -0.16887,-0.04488 l -0.90181,1.563114 -0.49433,-0.285335 0.90275,-1.563115 a 1.435227,1.435227 0 0 1 -0.12411,-0.12404 l -1.56318,0.902728 -0.2853,-0.493352 0.92566,-0.534363 h -2.78648 l -0.43896,0.767236 -0.003,0.0067 -0.003,0.0056 c -0.37753,0.590856 -0.60854,1.092086 -0.70525,1.48772 -0.0966,0.395665 -0.0626,0.669367 0.0554,0.870297 0.11803,0.200932 0.34057,0.362624 0.72427,0.47045 0.38376,0.107852 0.91687,0.151156 1.58412,0.116436 l 0.008,-10e-4 h 7.15415 l 0.008,9.22e-4 c 0.72475,0.03765 1.27927,-0.01429 1.66229,-0.131736 0.38306,-0.117414 0.58264,-0.284662 0.68519,-0.492404 0.10249,-0.207711 0.11849,-0.49546 0.008,-0.889353 -0.10985,-0.393863 -0.34538,-0.878847 -0.6985,-1.43141 l -0.002,-0.0056 -0.003,-0.0057 -3.57085,-6.198043 -0.002,-0.0067 -0.003,-0.0067 c -0.31132,-0.611044 -0.61937,-1.056087 -0.90559,-1.334094 -0.28628,-0.277975 -0.53339,-0.383908 -0.7625,-0.381709 z m -0.02,5.482262 c -0.33001,0 -0.62265,0.195526 -0.76342,0.469533 l -0.0792,0.155523 -0.17559,-9.81e-4 -3.12812,-0.01046 -0.28247,0.492405 h 3.60053 l 0.081,0.15076 c 0.14462,0.270556 0.42141,0.455181 0.74724,0.455181 0.4724,0 0.85594,-0.383541 0.85594,-0.855946 0,-0.472494 -0.38354,-0.856005 -0.85594,-0.856005 z"
     id="path1-7"
     style="fill:#ffffff;fill-opacity:1;stroke-width:0.0305367" /><path
     fill="currentColor"
     d="m 147.12291,11.784823 h 1.89357 l -2.46165,-4.2646332 c -0.16053,-0.263452 -0.25521,-0.55572 -0.25521,-0.880918 a 1.6461651,1.6461651 0 0 1 3.23964,-0.411645 h 1.70009 v -1.02911 c 0,-0.452809 0.37049,-0.8232891 0.8233,-0.8232891 v 1.0661591 l 0.65449,-0.654513 h 1.81537 v 0.823287 h -1.47781 l -0.99205,0.992062 v 0.0741 l 0.99205,0.992063 h 1.47781 v 0.82329 h -1.81537 l -0.65449,-0.654516 v 1.0661517 a 0.82328838,0.82328838 0 0 1 -0.8233,-0.8232887 v -1.02911 h -1.70009 c -0.0412,0.16054 -0.10704,0.312849 -0.18936,0.452808 l 2.46987,4.2810992 h 1.88945 a 0.82328838,0.82328838 0 0 1 0.82329,0.823289 v 0.411643 h -8.23289 v -0.411643 c 0,-0.45281 0.37048,-0.823289 0.82329,-0.823289 m 1.60953,-3.7047972 c -0.23052,0.131731 -0.49809,0.205822 -0.78625,0.205822 l 2.02118,3.4989752 h 0.90151 z m -0.78625,-2.264043 a 0.82328838,0.82328838 0 0 0 -0.82328,0.823289 c 0,0.456924 0.36637,0.823287 0.82328,0.823287 0.45693,0 0.82329,-0.366363 0.82329,-0.823287 a 0.82328838,0.82328838 0 0 0 -0.82329,-0.823289"
     id="path1-8"
     style="fill:#ffffff;fill-opacity:1;stroke-width:0.411643" /><rect
     style="fill:url(#linearGradient13);stroke:none;stroke-width:1.82461;stroke-linejoin:round;paint-order:stroke fill markers"
     id="rect7"
     width="210"
     height="32.31163"
     x="-2.1457672e-06"
     y="0"
     ry="0" /><rect
     style="fill:#252525;fill-opacity:1;stroke:none;stroke-width:1.43294;stroke-linejoin:round;paint-order:stroke fill markers"
     id="rect5"
     width="24.12961"
     height="21.63946"
     x="6.2660718"
     y="5.3678751"
     ry="2.7589345" /><path
     d="m 36.188565,7.3615448 h 3.104886 V 11.15869 l 3.255675,-3.7971452 h 4.12614 l -3.660064,3.7902912 3.824561,6.25775 h -3.824561 l -2.117903,-4.132994 -1.603848,1.679243 v 2.453751 h -3.104886 z m 11.501101,7.2515872 h 2.981513 v 2.796454 H 47.689666 Z M 59.081101,7.3615448 h 3.098032 v 5.9904422 q 0,0.891026 -0.281017,1.686096 -0.274162,0.788216 -0.870464,1.384519 -0.589449,0.589449 -1.240584,0.82934 -0.904735,0.335849 -2.172735,0.335849 -0.733383,0 -1.603848,-0.102811 -0.86361,-0.102811 -1.446205,-0.404389 -0.582594,-0.308432 -1.069232,-0.870465 -0.479784,-0.562032 -0.657989,-1.158334 -0.28787,-0.959568 -0.28787,-1.699805 V 7.3615448 h 3.098031 v 6.1343772 q 0,0.822486 0.452368,1.288561 0.459221,0.459222 1.268,0.459222 0.801924,0 1.254291,-0.452367 0.459222,-0.459222 0.459222,-1.295416 z m 4.496258,7.2515872 h 2.981513 v 2.796454 h -2.981513 z m 11.035026,1.137773 h -3.536691 l -0.486638,1.658681 H 67.41563 L 71.192213,7.3615448 h 3.385902 L 78.354698,17.409586 H 75.105877 Z M 73.96125,13.57817 72.850894,9.9660853 71.747391,13.57817 Z m 5.209077,1.034962 h 2.981513 v 2.796454 h -2.981513 z m 4.866379,-7.2515872 h 3.104886 V 11.15869 l 3.255675,-3.7971452 h 4.12614 l -3.660065,3.7902912 3.824562,6.25775 h -3.824562 l -2.117902,-4.132994 -1.603848,1.679243 v 2.453751 h -3.104886 z"
     id="text2"
     style="font-weight:900;font-size:14.0371px;font-family:Arial;-inkscape-font-specification:'Arial, Heavy';fill:#ffffff;stroke-width:0.864538;stroke-linejoin:round;paint-order:stroke fill markers"
     aria-label="K.U.A.K" /><g
     id="layer1-3"
     transform="matrix(0.13787561,0,0,0.13787561,6.2660719,-5.938972)"><path
       id="path3"
       style="fill:url(#radialGradient6);stroke:none;stroke-width:3.44977;paint-order:stroke fill markers"
       d="m 100.80283,195.07598 a 60.049137,15.039578 0 0 0 -49.552261,6.55095 h -10.49681 v 8.48849 a 60.049137,15.039578 0 0 0 60.049071,15.04003 60.049137,15.039578 0 0 0 60.04908,-15.04003 v -8.48849 h -10.48662 a 60.049137,15.039578 0 0 0 -49.56246,-6.55095 z" /><ellipse
       style="fill:url(#linearGradient4);stroke:none;stroke-width:3.44977;paint-order:stroke fill markers"
       id="ellipse3"
       cx="100.80263"
       cy="201.62663"
       rx="60.049137"
       ry="15.039577" /><ellipse
       style="fill:url(#radialGradient33);stroke:none;stroke-width:10.4903;stroke-linecap:round;stroke-opacity:1;paint-order:stroke fill markers"
       id="ellipse33"
       cx="100.75969"
       cy="202.34129"
       rx="74.250305"
       ry="16.493166" /><path
       id="ellipse2"
       style="fill:url(#radialGradient5);stroke:none;stroke-width:3.14856;paint-order:stroke fill markers"
       d="m 100.80263,186.58706 a 54.806015,13.726414 0 0 0 -45.225661,5.97896 h -9.580293 v 7.74733 a 54.806015,13.726414 0 0 0 54.805954,13.72682 54.806015,13.726414 0 0 0 54.80596,-13.72682 v -7.74733 h -9.57099 a 54.806015,13.726414 0 0 0 -45.23497,-5.97896 z" /><ellipse
       style="fill:url(#linearGradient2-6);stroke:none;stroke-width:3.14856;paint-order:stroke fill markers"
       id="path1"
       cx="100.80245"
       cy="192.56577"
       rx="54.806015"
       ry="13.726414" /><ellipse
       style="fill:url(#radialGradient31);stroke:none;stroke-width:5.11194;stroke-linecap:round;stroke-opacity:1;paint-order:stroke fill markers"
       id="path30"
       cx="102.60744"
       cy="192.12006"
       rx="27.787724"
       ry="10.46525" /><path
       id="rect8"
       style="baseline-shift:baseline;display:inline;overflow:visible;vector-effect:none;fill:url(#linearGradient10);paint-order:stroke fill markers;enable-background:accumulate;stop-color:#000000;stop-opacity:1"
       d="m 92.03804,147.78465 h 12.51029 v 47.32072 l -13.039402,-2.64556 z" /><path
       id="rect10"
       style="fill:#e78643;fill-opacity:1;stroke-width:2.06578;paint-order:stroke fill markers"
       d="m 104.54832,147.78465 h 8.54195 v 42.16188 l -8.54195,5.15884 z" /><path
       id="rect12"
       style="fill:url(#linearGradient14);stroke-width:3.3657;paint-order:stroke fill markers"
       d="m 86.243351,125.46333 c -4.19771,2e-5 -7.600561,4.96277 -7.60035,11.08443 1.2e-5,6.12143 3.402798,11.08382 7.60035,11.08384 l 28.663439,3.39893 V 128.9375 l -26.994886,-3.20181 c -0.54758,-0.18037 -1.107178,-0.27172 -1.668553,-0.27236 z" /><ellipse
       style="fill:url(#linearGradient16);fill-opacity:1;stroke:none;stroke-width:2.82143;paint-order:stroke fill markers"
       id="path14"
       cx="115.74448"
       cy="140.01434"
       rx="7.6003699"
       ry="11.083872" /><path
       id="path17"
       style="fill:url(#linearGradient18);stroke:none;stroke-width:2.5;paint-order:stroke fill markers"
       d="m 122.81989,94.446431 -42.725554,14.550529 12.036991,1.91823 3.505729,6.21668 -0.330729,15.0797 20.701583,-7.14272 -1.95802,4.16047 a 7.6003699,11.083872 0 0 1 1.69447,-0.29869 7.6003699,11.083872 0 0 1 6.088,4.45089 l 4.22868,-11.75225 11.50782,-4.23282 -0.19843,-16.66668 -2.38074,-4.03438 z" /><path
       style="fill:url(#linearGradient20);stroke:none;stroke-width:2.5;paint-order:stroke fill markers"
       d="m 80.094335,108.99696 -3.676573,3.24455 -0.561208,17.0233 19.449772,2.94676 0.330729,-15.0797 -3.505729,-6.21668 z"
       id="path18" /><ellipse
       style="fill:url(#radialGradient32);stroke:none;stroke-width:3.37073;stroke-linecap:round;stroke-opacity:1;paint-order:stroke fill markers"
       id="ellipse32"
       cx="120.98261"
       cy="85.056229"
       rx="12.08178"
       ry="10.46525"
       transform="matrix(0,1,1,0,0,0)" /><path
       id="path20"
       style="fill:url(#linearGradient22);stroke-width:2.21441;paint-order:stroke fill markers"
       d="m 87.789485,127.18211 c 2.474307,-1.04508 3.336958,-5.05402 1.926751,-8.95405 -1.410032,-3.89992 -4.558824,-6.21426 -7.033037,-5.16923 l -24.557502,8.67489 5.088956,14.07534 23.528583,-8.38506 c 0.364313,-0.0214 0.715203,-0.10254 1.046249,-0.24189 z" /><ellipse
       style="fill:url(#linearGradient21);stroke:none;stroke-width:1.85761;paint-order:stroke fill markers"
       id="ellipse20"
       cx="-12.754365"
       cy="-142.40761"
       rx="4.8631926"
       ry="7.5088325"
       transform="matrix(-0.92119997,0.38908948,-0.34001055,-0.94042162,0,0)" /><path
       id="path24"
       style="fill:url(#linearGradient26);stroke-width:1.18359;paint-order:stroke fill markers"
       d="m 62.012043,132.66115 c 1.3225,-0.55858 1.783582,-2.70134 1.029835,-4.78588 -0.753652,-2.08448 -2.43666,-3.32147 -3.75911,-2.76291 l -1.812378,0.67696 2.720012,7.52318 1.262428,-0.52206 c 0.194723,-0.0114 0.382271,-0.0548 0.559213,-0.12929 z" /><ellipse
       style="fill:url(#linearGradient25);fill-opacity:1;stroke:none;stroke-width:0.99288;paint-order:stroke fill markers"
       id="ellipse24"
       cx="-11.005894"
       cy="-142.41945"
       rx="2.5993433"
       ry="4.0134201"
       transform="matrix(-0.92119997,0.38908948,-0.34001055,-0.94042162,0,0)" /><g
       id="path39"
       style="display:inline;fill:url(#linearGradient55);stroke:none"><path
         id="path51"
         style="fill:url(#linearGradient3);fill-opacity:1;stroke:none;stroke-linecap:round;paint-order:stroke fill markers"
         d="m 55.514958,124.80479 c -0.787678,-0.018 -1.571189,0.11931 -2.305803,0.4041 L 0,145.83813 v 12.87001 l 57.546875,-22.30975 c 3.090107,-1.19774 4.62391,-4.67396 3.425631,-7.76386 -0.877216,-2.26285 -3.031243,-3.77441 -5.457548,-3.82974 z" /><path
         style="fill:url(#linearGradient5);fill-opacity:1;stroke:none;stroke-linecap:round;paint-order:stroke fill markers"
         d="M 55.378213,130.80368 0,152.60438"
         id="path52" /></g><g
       id="path28"><path
         id="path53"
         style="fill:#63ccd8;stroke-linecap:round;paint-order:stroke fill markers"
         d="M 57.820243,128.84743 0,151.26415 v 2.68046 l 58.724581,-22.76709 a 1.25,1.25 0 0 0 0.713135,-1.61695 1.25,1.25 0 0 0 -1.617473,-0.71314 z" /></g><path
       style="fill:#de4d4d;fill-opacity:1;stroke:none;stroke-width:2.5;stroke-linecap:round;stroke-opacity:1;paint-order:stroke fill markers"
       d="m 114.04989,129.22932 1.95802,-4.16047 -8.71636,3.00743 z"
       id="path38" /><path
       id="path42"
       style="fill:url(#linearGradient42);stroke:none;stroke-width:2.5;paint-order:stroke fill markers"
       d="m 122.81989,94.446431 -42.725554,14.550529 12.036991,1.91823 3.505729,6.21668 -0.330729,15.0797 20.701583,-7.14272 -1.95802,4.16047 c 0.55534,-0.19203 1.12375,-0.29222 1.69447,-0.29869 2.39708,5.5e-4 4.6535,1.65021 6.088,4.45089 l 4.22868,-11.75225 11.50782,-4.23282 -0.19843,-16.66668 -2.38074,-4.03438 z" /><path
       id="path43"
       style="fill:url(#radialGradient51);stroke-width:3.3657;paint-order:stroke fill markers"
       d="m 107.29155,128.07628 -11.985223,4.13529 -15.143778,-2.29444 c -0.950341,1.85049 -1.51989,4.14082 -1.519804,6.63061 1.2e-5,6.12143 3.403018,11.08406 7.60057,11.08408 l 28.663365,3.39875 v -0.0124 c -3.84645,-0.62226 -6.75808,-5.36016 -6.76238,-11.00398 0.004,-5.64362 2.91606,-10.38122 6.76238,-11.00346 v -0.002 c -0.28825,0.0496 -0.57432,0.12331 -0.85679,0.22066 v 0 z" /><g
       id="g45"
       transform="matrix(0.23667658,-0.0812834,0,0.23667658,103.20383,106.45947)"
       style="fill:#000000;fill-opacity:0.481803;stroke-width:1.00109;stroke-dasharray:none"><path
         d="m 85.02714,84.742186 v -5.469433 l 3.509863,-9.698633 h 3.472656 z m -2.443262,2.864942 V 69.57412 h 3.075781 v 18.033008 z m 6.622852,0 -3.050977,-9.847461 2.108399,-1.847949 4.316015,11.69541 z"
         id="text45"
         style="font-size:25.4px;font-family:Bahnschrift;-inkscape-font-specification:'Bahnschrift, @wght=700';font-variation-settings:'wght' 700;fill:#000000;fill-opacity:0.481803;stroke-width:1.00109;stroke-linecap:round;stroke-dasharray:none;paint-order:stroke fill markers"
         aria-label="KUAK" /><path
         d="m 101.09241,88.670705 c -1.347716,0 -3.460246,-0.39687 -4.220926,-1.19062 -0.76067,-0.80202 -1.14101,-1.92237 -1.14101,-3.36104 V 70.451663 h 3.08818 v 13.754202 c 0,0.43821 0.10749,0.78134 0.32246,1.02939 0.21497,0.23978 1.570956,0.35967 1.951296,0.35967 0.38861,0 1.74873,-0.11989 1.9637,-0.35967 0.22324,-0.24805 0.33486,-0.59118 0.33486,-1.02939 V 70.451663 h 3.08819 v 13.667382 c 0,1.43867 -0.38447,2.55902 -1.15342,3.36104 -0.76068,0.79375 -2.87734,1.19062 -4.23333,1.19062 z"
         style="font-size:25.4px;font-family:Bahnschrift;-inkscape-font-specification:'Bahnschrift, @wght=700';font-variation-settings:'wght' 700;fill:#000000;fill-opacity:0.481803;stroke-width:1.00109;stroke-linecap:round;stroke-dasharray:none;paint-order:stroke fill markers"
         id="path1-9" /><path
         d="m 108.82636,87.703443 5.88146,-18.033015 h 2.94921 l 5.88144,18.033015 h -4.16956 l -3.18649,-11.819441 -3.18649,11.819441 z m 4.00008,-2.802936 v -2.877344 h 6.71197 v 2.877344 z"
         style="font-size:25.4px;font-family:Bahnschrift;-inkscape-font-specification:'Bahnschrift, @wght=700';font-variation-settings:'wght' 700;fill:#000000;fill-opacity:0.481803;stroke-width:1.00109;stroke-linecap:round;stroke-dasharray:none;paint-order:stroke fill markers"
         id="path1-1" /><path
         d="m 129.58536,84.722812 v -5.469433 l 3.50986,-9.698633 h 3.47266 z m -2.44326,2.864942 V 69.554746 h 3.07578 v 18.033008 z m 6.62285,0 -3.05098,-9.847461 2.1084,-1.847949 4.31602,11.69541 z"
         id="path45"
         style="font-size:25.4px;font-family:Bahnschrift;-inkscape-font-specification:'Bahnschrift, @wght=700';font-variation-settings:'wght' 700;fill:#000000;fill-opacity:0.481803;stroke-width:1.00109;stroke-linecap:round;stroke-dasharray:none;paint-order:stroke fill markers"
         aria-label="KUAK" /></g></g><path
     d="M 36.188563,24.493099 V 21.39034 h 0.410597 v 1.538681 l 1.540798,-1.538681 h 0.556634 l -1.301635,1.257189 1.35878,1.84557 h -0.541819 l -1.104802,-1.570428 -0.507956,0.495256 v 1.075172 z m 2.71756,-1.123851 q 0,-0.624361 0.347103,-0.924901 0.289957,-0.249745 0.706904,-0.249745 0.463509,0 0.757699,0.304773 0.294191,0.302657 0.294191,0.838126 0,0.433878 -0.131222,0.683623 -0.129105,0.247628 -0.378849,0.385199 -0.247629,0.137571 -0.541819,0.137571 -0.471975,0 -0.764049,-0.302656 -0.289958,-0.302657 -0.289958,-0.87199 z m 0.391549,0 q 0,0.431762 0.188366,0.647643 0.188367,0.213764 0.474092,0.213764 0.283608,0 0.471975,-0.21588 0.188366,-0.215881 0.188366,-0.658226 0,-0.416946 -0.190483,-0.63071 -0.188366,-0.215881 -0.469858,-0.215881 -0.285725,0 -0.474092,0.213764 -0.188366,0.213765 -0.188366,0.645526 z m 2.160925,1.123851 v -2.247701 h 0.340753 v 0.315355 q 0.105824,-0.165085 0.281492,-0.26456 0.175668,-0.101591 0.400015,-0.101591 0.249744,0 0.40848,0.103708 0.160853,0.103707 0.226463,0.289957 0.266677,-0.393665 0.694206,-0.393665 0.334403,0 0.514304,0.18625 0.179901,0.184134 0.179901,0.569333 v 1.542914 h -0.37885 v -1.415925 q 0,-0.22858 -0.0381,-0.328054 -0.03598,-0.101591 -0.133338,-0.162969 -0.09736,-0.06138 -0.22858,-0.06138 -0.237045,0 -0.393665,0.158736 -0.156619,0.156619 -0.156619,0.503722 v 1.305868 h -0.380966 v -1.460371 q 0,-0.253977 -0.09313,-0.380966 -0.09312,-0.126989 -0.304773,-0.126989 -0.160852,0 -0.298423,0.08466 -0.135455,0.08466 -0.196833,0.247628 -0.06138,0.162969 -0.06138,0.469859 v 1.16618 z m 3.610714,0.861407 v -3.109108 h 0.347103 v 0.292074 q 0.122755,-0.171435 0.277258,-0.256094 0.154503,-0.08678 0.374617,-0.08678 0.287841,0 0.507955,0.148154 0.220114,0.148153 0.332288,0.419063 0.112173,0.268793 0.112173,0.590497 0,0.344987 -0.124872,0.622245 -0.122756,0.275143 -0.359802,0.423296 -0.234929,0.146037 -0.495256,0.146037 -0.190483,0 -0.34287,-0.08043 -0.15027,-0.08043 -0.247628,-0.203182 v 1.09422 z m 0.344986,-1.972559 q 0,0.433878 0.175668,0.641293 0.175668,0.207415 0.425412,0.207415 0.253978,0 0.433879,-0.213764 0.182017,-0.215881 0.182017,-0.666691 0,-0.429645 -0.177784,-0.64341 -0.175668,-0.213764 -0.42118,-0.213764 -0.243395,0 -0.431762,0.22858 -0.18625,0.226463 -0.18625,0.660341 z m 2.057218,1.111152 V 21.39034 h 0.380967 v 3.102759 z m 2.510145,-0.723836 0.393665,0.04868 q -0.09313,0.344986 -0.344986,0.535469 -0.251861,0.190483 -0.64341,0.190483 -0.493139,0 -0.783097,-0.302656 -0.287841,-0.304773 -0.287841,-0.852941 0,-0.567217 0.292074,-0.880456 0.292074,-0.313239 0.7577,-0.313239 0.45081,0 0.736535,0.30689 0.285724,0.306889 0.285724,0.863523 0,0.03386 -0.0021,0.101591 h -1.676252 q 0.02116,0.370384 0.209531,0.567217 0.188367,0.196832 0.469859,0.196832 0.209531,0 0.357685,-0.110056 0.148154,-0.110057 0.234929,-0.351336 z m -1.250839,-0.615896 h 1.255072 q -0.0254,-0.283608 -0.14392,-0.425412 -0.182018,-0.220114 -0.471975,-0.220114 -0.262444,0 -0.442345,0.175668 -0.177784,0.175668 -0.196832,0.469858 z m 1.86885,1.339732 0.821194,-1.168297 -0.759816,-1.079404 h 0.476208 l 0.344986,0.527003 q 0.09736,0.15027 0.15662,0.251861 0.09313,-0.139687 0.171435,-0.247628 l 0.378849,-0.531236 h 0.455044 l -0.776748,1.058239 0.836009,1.189462 H 52.23571 l -0.461392,-0.698438 -0.122756,-0.188367 -0.590498,0.886805 z m 3.959935,-0.723836 0.393665,0.04868 q -0.09313,0.344986 -0.344986,0.535469 -0.251861,0.190483 -0.64341,0.190483 -0.49314,0 -0.783097,-0.302656 -0.287841,-0.304773 -0.287841,-0.852941 0,-0.567217 0.292074,-0.880456 0.292074,-0.313239 0.757699,-0.313239 0.45081,0 0.736535,0.30689 0.285725,0.306889 0.285725,0.863523 0,0.03386 -0.0021,0.101591 h -1.676251 q 0.02117,0.370384 0.209531,0.567217 0.188367,0.196832 0.469859,0.196832 0.209531,0 0.357685,-0.110056 0.148153,-0.110057 0.234929,-0.351336 z m -1.250839,-0.615896 h 1.255072 q -0.0254,-0.283608 -0.143921,-0.425412 -0.182017,-0.220114 -0.471975,-0.220114 -0.262443,0 -0.442344,0.175668 -0.177784,0.175668 -0.196832,0.469858 z m 5.411837,-1.763027 h 0.410597 v 1.792658 q 0,0.467742 -0.105824,0.742884 -0.105824,0.275143 -0.383083,0.448694 -0.275142,0.171435 -0.723836,0.171435 -0.435995,0 -0.713253,-0.15027 -0.277259,-0.15027 -0.395782,-0.433878 Q 56.6909,23.676138 56.6909,23.182998 V 21.39034 h 0.410597 v 1.790542 q 0,0.404247 0.07408,0.596847 0.07619,0.190483 0.25821,0.29419 0.184134,0.103708 0.448694,0.103708 0.452927,0 0.645526,-0.205299 0.1926,-0.205298 0.1926,-0.789446 z m 1.04554,3.102759 v -2.247701 h 0.342869 v 0.319588 q 0.247628,-0.370384 0.71537,-0.370384 0.203182,0 0.372501,0.07408 0.171435,0.07196 0.256094,0.190483 0.08466,0.118523 0.118523,0.281492 0.02116,0.105824 0.02116,0.370384 v 1.382061 h -0.380966 v -1.367246 q 0,-0.232813 -0.04445,-0.347102 -0.04445,-0.116407 -0.158736,-0.184134 -0.112173,-0.06984 -0.26456,-0.06984 -0.243395,0 -0.421179,0.154503 -0.175668,0.154503 -0.175668,0.586265 v 1.227558 z m 2.340827,0.18625 0.370384,0.05503 q 0.02328,0.171434 0.129105,0.249744 0.141804,0.105824 0.387316,0.105824 0.26456,0 0.40848,-0.105824 0.143921,-0.105824 0.194717,-0.296307 0.02963,-0.116406 0.02751,-0.488907 -0.249745,0.294191 -0.622245,0.294191 -0.463509,0 -0.717487,-0.334404 -0.253977,-0.334404 -0.253977,-0.802146 0,-0.321704 0.116406,-0.592614 0.116406,-0.273026 0.33652,-0.421179 0.222231,-0.148154 0.520654,-0.148154 0.397898,0 0.656109,0.321705 v -0.270909 h 0.351336 v 1.942928 q 0,0.524887 -0.107941,0.742884 -0.105824,0.220114 -0.338637,0.347103 -0.230696,0.126989 -0.569333,0.126989 -0.402131,0 -0.649759,-0.182018 -0.247628,-0.1799 -0.239162,-0.543935 z m 0.315355,-1.350314 q 0,0.442344 0.175668,0.645526 0.175668,0.203182 0.440228,0.203182 0.262443,0 0.440228,-0.201065 0.177784,-0.203182 0.177784,-0.634944 0,-0.412713 -0.184134,-0.622245 -0.182017,-0.209531 -0.440227,-0.209531 -0.253978,0 -0.431762,0.207415 -0.177785,0.205298 -0.177785,0.611662 z m 3.703839,0.440228 0.393665,0.04868 q -0.09313,0.344986 -0.344986,0.535469 -0.251861,0.190483 -0.64341,0.190483 -0.49314,0 -0.783097,-0.302656 -0.287842,-0.304773 -0.287842,-0.852941 0,-0.567217 0.292075,-0.880456 0.292074,-0.313239 0.757699,-0.313239 0.45081,0 0.736535,0.30689 0.285725,0.306889 0.285725,0.863523 0,0.03386 -0.0021,0.101591 h -1.676251 q 0.02116,0.370384 0.209531,0.567217 0.188367,0.196832 0.469858,0.196832 0.209532,0 0.357686,-0.110056 0.148153,-0.110057 0.234929,-0.351336 z m -1.25084,-0.615896 h 1.255073 q -0.0254,-0.283608 -0.143921,-0.425412 -0.182017,-0.220114 -0.471975,-0.220114 -0.262443,0 -0.442344,0.175668 -0.177784,0.175668 -0.196833,0.469858 z m 1.921765,1.339732 v -0.309006 l 1.43074,-1.642388 q -0.243395,0.0127 -0.429645,0.0127 h -0.916436 v -0.309006 h 1.837104 v 0.251861 l -1.216975,1.426507 -0.23493,0.260327 q 0.256094,-0.01905 0.480441,-0.01905 h 1.039192 v 0.328054 z m 2.370456,-2.664648 V 21.39034 h 0.380967 v 0.438111 z m 0,2.664648 v -2.247701 h 0.380967 v 2.247701 z m 2.499562,-0.723836 0.393665,0.04868 q -0.09313,0.344986 -0.344986,0.535469 -0.251861,0.190483 -0.64341,0.190483 -0.49314,0 -0.783097,-0.302656 -0.287841,-0.304773 -0.287841,-0.852941 0,-0.567217 0.292074,-0.880456 0.292074,-0.313239 0.757699,-0.313239 0.45081,0 0.736535,0.30689 0.285725,0.306889 0.285725,0.863523 0,0.03386 -0.0021,0.101591 h -1.676251 q 0.02116,0.370384 0.209531,0.567217 0.188367,0.196832 0.469859,0.196832 0.209531,0 0.357685,-0.110056 0.148153,-0.110057 0.234929,-0.351336 z m -1.250839,-0.615896 h 1.255072 q -0.0254,-0.283608 -0.143921,-0.425412 -0.182017,-0.220114 -0.471975,-0.220114 -0.262443,0 -0.442344,0.175668 -0.177784,0.175668 -0.196832,0.469858 z m 2.213838,1.339732 v -1.951394 h -0.33652 v -0.296307 h 0.33652 v -0.239162 q 0,-0.226464 0.04021,-0.336521 0.05503,-0.148153 0.1926,-0.239162 0.139688,-0.09312 0.389432,-0.09312 0.160853,0 0.355569,0.0381 l -0.05714,0.332287 q -0.118523,-0.02116 -0.224347,-0.02116 -0.173551,0 -0.245512,0.07408 -0.07196,0.07408 -0.07196,0.277259 v 0.207415 h 0.438111 v 0.296307 h -0.438111 v 1.951394 z m 2.651949,-0.723836 0.393665,0.04868 q -0.09313,0.344986 -0.344986,0.535469 -0.251861,0.190483 -0.64341,0.190483 -0.493139,0 -0.783097,-0.302656 -0.287841,-0.304773 -0.287841,-0.852941 0,-0.567217 0.292074,-0.880456 0.292074,-0.313239 0.7577,-0.313239 0.45081,0 0.736534,0.30689 0.285725,0.306889 0.285725,0.863523 0,0.03386 -0.0021,0.101591 h -1.676252 q 0.02117,0.370384 0.209531,0.567217 0.188367,0.196832 0.469859,0.196832 0.209531,0 0.357685,-0.110056 0.148153,-0.110057 0.234929,-0.351336 z m -1.250839,-0.615896 h 1.255072 q -0.0254,-0.283608 -0.143921,-0.425412 -0.182017,-0.220114 -0.471974,-0.220114 -0.262444,0 -0.442345,0.175668 -0.177784,0.175668 -0.196832,0.469858 z m 2.118593,1.339732 v -2.247701 h 0.34287 v 0.340753 q 0.131221,-0.239162 0.241278,-0.315356 0.112174,-0.07619 0.245512,-0.07619 0.1926,0 0.391549,0.122756 l -0.131222,0.353452 q -0.139688,-0.08254 -0.279375,-0.08254 -0.124873,0 -0.224347,0.07619 -0.09947,0.07408 -0.141804,0.207415 -0.0635,0.203182 -0.0635,0.44446 v 1.176763 z m 2.120713,0 1.191578,-3.102759 h 0.442344 l 1.269888,3.102759 h -0.467742 l -0.361918,-0.939717 h -1.297402 l -0.340753,0.939717 z m 0.895271,-1.274121 h 1.05189 l -0.323821,-0.85929 q -0.148154,-0.391549 -0.220114,-0.64341 -0.05926,0.298423 -0.167202,0.592614 z m 3.760986,1.274121 v -0.330171 q -0.262443,0.380966 -0.713254,0.380966 -0.198949,0 -0.3725,-0.07619 -0.171435,-0.07619 -0.256094,-0.190483 -0.08254,-0.116406 -0.116406,-0.283608 -0.02328,-0.112174 -0.02328,-0.355569 v -1.392643 h 0.380967 v 1.246606 q 0,0.298424 0.02328,0.402131 0.03598,0.15027 0.152387,0.237046 0.116406,0.08466 0.287841,0.08466 0.171435,0 0.321705,-0.08678 0.15027,-0.08889 0.211648,-0.239162 0.06349,-0.152386 0.06349,-0.440227 v -1.204277 h 0.380966 v 2.247701 z m 0.785211,-0.670924 0.376734,-0.05926 q 0.03175,0.226464 0.175667,0.347103 0.146037,0.120639 0.406364,0.120639 0.262444,0 0.389433,-0.105824 0.126988,-0.10794 0.126988,-0.251861 0,-0.129105 -0.112173,-0.203182 -0.07831,-0.0508 -0.389432,-0.129105 -0.419063,-0.105824 -0.582032,-0.182017 -0.160852,-0.07831 -0.245512,-0.213765 -0.08254,-0.137571 -0.08254,-0.302656 0,-0.15027 0.06773,-0.277259 0.06984,-0.129105 0.188367,-0.213764 0.08889,-0.06561 0.241278,-0.110057 0.154503,-0.04656 0.330171,-0.04656 0.26456,0 0.463509,0.07619 0.201066,0.07619 0.296307,0.207415 0.09524,0.129106 0.131222,0.347103 l -0.3725,0.0508 q -0.0254,-0.173552 -0.148154,-0.27091 -0.120639,-0.09736 -0.34287,-0.09736 -0.262443,0 -0.374617,0.08678 -0.112173,0.08678 -0.112173,0.203182 0,0.07408 0.04656,0.133338 0.04656,0.06138 0.146037,0.101591 0.05715,0.02116 0.33652,0.09736 0.404248,0.107941 0.562983,0.177784 0.160853,0.06773 0.251862,0.198949 0.09101,0.131222 0.09101,0.325938 0,0.190483 -0.112173,0.359802 -0.110057,0.167202 -0.319589,0.260327 -0.209531,0.09101 -0.474091,0.09101 -0.438111,0 -0.668808,-0.182017 -0.228579,-0.182017 -0.292074,-0.539702 z m 2.311195,0.670924 V 21.39034 h 0.380967 v 3.102759 z m 0.829663,-1.123851 q 0,-0.624361 0.347103,-0.924901 0.289958,-0.249745 0.706904,-0.249745 0.463509,0 0.7577,0.304773 0.29419,0.302657 0.29419,0.838126 0,0.433878 -0.131221,0.683623 -0.129106,0.247628 -0.37885,0.385199 -0.247628,0.137571 -0.541819,0.137571 -0.471975,0 -0.764049,-0.302656 -0.289958,-0.302657 -0.289958,-0.87199 z m 0.391549,0 q 0,0.431762 0.188367,0.647643 0.188366,0.213764 0.474091,0.213764 0.283608,0 0.471975,-0.21588 0.188367,-0.215881 0.188367,-0.658226 0,-0.416946 -0.190483,-0.63071 -0.188367,-0.215881 -0.469859,-0.215881 -0.285725,0 -0.474091,0.213764 -0.188367,0.213765 -0.188367,0.645526 z m 0.06773,-1.564078 v -0.433878 h 0.397899 v 0.433878 z m 0.789447,0 v -0.433878 h 0.397898 v 0.433878 z m 1.151362,2.017005 0.376734,-0.05926 q 0.03175,0.226464 0.175668,0.347103 0.146037,0.120639 0.406364,0.120639 0.262443,0 0.389432,-0.105824 0.126989,-0.10794 0.126989,-0.251861 0,-0.129105 -0.112174,-0.203182 -0.07831,-0.0508 -0.389432,-0.129105 -0.419063,-0.105824 -0.582032,-0.182017 -0.160852,-0.07831 -0.245512,-0.213765 -0.08254,-0.137571 -0.08254,-0.302656 0,-0.15027 0.06773,-0.277259 0.06984,-0.129105 0.188367,-0.213764 0.08889,-0.06561 0.241278,-0.110057 0.154503,-0.04656 0.330171,-0.04656 0.26456,0 0.463509,0.07619 0.201066,0.07619 0.296307,0.207415 0.09524,0.129106 0.131222,0.347103 l -0.3725,0.0508 q -0.0254,-0.173552 -0.148154,-0.27091 -0.120639,-0.09736 -0.34287,-0.09736 -0.262443,0 -0.374616,0.08678 -0.112174,0.08678 -0.112174,0.203182 0,0.07408 0.04656,0.133338 0.04656,0.06138 0.146037,0.101591 0.05714,0.02116 0.33652,0.09736 0.404248,0.107941 0.562984,0.177784 0.160852,0.06773 0.251861,0.198949 0.09101,0.131222 0.09101,0.325938 0,0.190483 -0.112173,0.359802 -0.110057,0.167202 -0.319589,0.260327 -0.209531,0.09101 -0.474091,0.09101 -0.438111,0 -0.668807,-0.182017 -0.22858,-0.182017 -0.292075,-0.539702 z m 3.786382,-0.152387 0.374617,0.04868 q -0.06138,0.387316 -0.315356,0.60743 -0.251861,0.217997 -0.620128,0.217997 -0.461393,0 -0.742885,-0.30054 -0.279375,-0.302656 -0.279375,-0.86564 0,-0.364034 0.120639,-0.63706 0.12064,-0.273026 0.366151,-0.408481 0.247628,-0.137571 0.537586,-0.137571 0.366151,0 0.598964,0.18625 0.232813,0.184134 0.298423,0.524887 l -0.370384,0.05714 q -0.05291,-0.226463 -0.188366,-0.340753 -0.133338,-0.11429 -0.323822,-0.11429 -0.287841,0 -0.467742,0.207415 -0.1799,0.205299 -0.1799,0.651876 0,0.452926 0.173551,0.658225 0.173551,0.205298 0.452927,0.205298 0.224346,0 0.374617,-0.137571 0.15027,-0.137571 0.190483,-0.423296 z m 0.700558,0.823311 V 21.39034 h 0.380966 v 1.113268 q 0.266676,-0.309006 0.67304,-0.309006 0.249745,0 0.433879,0.09948 0.184133,0.09736 0.262443,0.270909 0.08043,0.173551 0.08043,0.503722 v 1.424391 h -0.380966 v -1.424391 q 0,-0.285724 -0.124872,-0.41483 -0.122756,-0.131221 -0.349219,-0.131221 -0.169319,0 -0.319589,0.08889 -0.148153,0.08677 -0.211648,0.237045 -0.06349,0.15027 -0.06349,0.41483 v 1.229675 z m 3.883737,0 v -0.330171 q -0.262444,0.380966 -0.713254,0.380966 -0.198949,0 -0.3725,-0.07619 -0.171435,-0.07619 -0.256094,-0.190483 -0.08254,-0.116406 -0.116407,-0.283608 -0.02328,-0.112174 -0.02328,-0.355569 v -1.392643 h 0.380966 v 1.246606 q 0,0.298424 0.02328,0.402131 0.03598,0.15027 0.152386,0.237046 0.116407,0.08466 0.287841,0.08466 0.171435,0 0.321705,-0.08678 0.15027,-0.08889 0.211648,-0.239162 0.06349,-0.152386 0.06349,-0.440227 v -1.204277 h 0.380966 v 2.247701 z m 0.937601,0 v -2.247701 h 0.34287 v 0.319588 q 0.247631,-0.370384 0.715368,-0.370384 0.20318,0 0.3725,0.07408 0.171437,0.07196 0.256097,0.190483 0.0847,0.118523 0.11852,0.281492 0.0212,0.105824 0.0212,0.370384 v 1.382061 h -0.38096 v -1.367246 q 0,-0.232813 -0.0444,-0.347102 -0.0444,-0.116407 -0.15874,-0.184134 -0.11217,-0.06984 -0.26456,-0.06984 -0.2434,0 -0.42118,0.154503 -0.17567,0.154503 -0.17567,0.586265 v 1.227558 z m 2.340825,0.18625 0.37039,0.05503 q 0.0233,0.171434 0.1291,0.249744 0.14181,0.105824 0.38732,0.105824 0.26456,0 0.40849,-0.105824 0.14392,-0.105824 0.19472,-0.296307 0.0296,-0.116406 0.0275,-0.488907 -0.24975,0.294191 -0.62226,0.294191 -0.46351,0 -0.71749,-0.334404 -0.25398,-0.334404 -0.25398,-0.802146 0,-0.321704 0.11641,-0.592614 0.11641,-0.273026 0.33652,-0.421179 0.22223,-0.148154 0.52066,-0.148154 0.3979,0 0.65612,0.321705 v -0.270909 h 0.35133 v 1.942928 q 0,0.524887 -0.10794,0.742884 -0.10582,0.220114 -0.33864,0.347103 -0.23069,0.126989 -0.56934,0.126989 -0.40213,0 -0.64976,-0.182018 -0.24763,-0.1799 -0.23916,-0.543935 z m 0.31536,-1.350314 q 0,0.442344 0.17567,0.645526 0.17567,0.203182 0.44023,0.203182 0.26244,0 0.44023,-0.201065 0.17779,-0.203182 0.17779,-0.634944 0,-0.412713 -0.18414,-0.622245 -0.18202,-0.209531 -0.44023,-0.209531 -0.25398,0 -0.43177,0.207415 -0.17778,0.205298 -0.17778,0.611662 z m 2.01279,0.49314 0.37673,-0.05926 q 0.0318,0.226464 0.17567,0.347103 0.14604,0.120639 0.40636,0.120639 0.26246,0 0.38944,-0.105824 0.12699,-0.10794 0.12699,-0.251861 0,-0.129105 -0.11217,-0.203182 -0.0783,-0.0508 -0.38944,-0.129105 -0.41907,-0.105824 -0.58203,-0.182017 -0.16086,-0.07831 -0.24552,-0.213765 -0.0825,-0.137571 -0.0825,-0.302656 0,-0.15027 0.0677,-0.277259 0.0698,-0.129105 0.18837,-0.213764 0.0889,-0.06561 0.24128,-0.110057 0.1545,-0.04656 0.33017,-0.04656 0.26457,0 0.46352,0.07619 0.20106,0.07619 0.29631,0.207415 0.0952,0.129106 0.13122,0.347103 l -0.3725,0.0508 q -0.0254,-0.173552 -0.14816,-0.27091 -0.12064,-0.09736 -0.34288,-0.09736 -0.26244,0 -0.37461,0.08678 -0.11218,0.08678 -0.11218,0.203182 0,0.07408 0.0466,0.133338 0.0466,0.06138 0.14604,0.101591 0.0571,0.02116 0.33652,0.09736 0.40426,0.107941 0.56299,0.177784 0.16086,0.06773 0.25187,0.198949 0.091,0.131222 0.091,0.325938 0,0.190483 -0.11218,0.359802 -0.11005,0.167202 -0.31959,0.260327 -0.20953,0.09101 -0.4741,0.09101 -0.43811,0 -0.6688,-0.182017 -0.22857,-0.182017 -0.29207,-0.539702 z m 3.5557,0.670924 V 21.39034 h 0.4106 v 1.538681 l 1.54079,-1.538681 h 0.55664 l -1.30164,1.257189 1.35878,1.84557 h -0.54182 l -1.1048,-1.570428 -0.50795,0.495256 v 1.075172 z m 2.86148,-2.664648 V 21.39034 h 0.38096 v 0.438111 z m 0,2.664648 v -2.247701 h 0.38096 v 2.247701 z m 0.96088,0 v -2.247701 h 0.34287 v 0.319588 q 0.24762,-0.370384 0.71537,-0.370384 0.20318,0 0.3725,0.07408 0.17143,0.07196 0.25609,0.190483 0.0847,0.118523 0.11852,0.281492 0.0212,0.105824 0.0212,0.370384 v 1.382061 h -0.38097 v -1.367246 q 0,-0.232813 -0.0444,-0.347102 -0.0444,-0.116407 -0.15874,-0.184134 -0.11217,-0.06984 -0.26456,-0.06984 -0.2434,0 -0.42118,0.154503 -0.17574,0.154496 -0.17574,0.586258 v 1.227558 z m 3.94935,-0.723836 0.39367,0.04868 q -0.0931,0.344986 -0.34499,0.535469 -0.25186,0.190483 -0.64341,0.190483 -0.49314,0 -0.7831,-0.302656 -0.28784,-0.304773 -0.28784,-0.852941 0,-0.567217 0.29208,-0.880456 0.29207,-0.313239 0.7577,-0.313239 0.45081,0 0.73653,0.30689 0.28573,0.306889 0.28573,0.863523 0,0.03386 -0.002,0.101591 h -1.67625 q 0.0212,0.370384 0.20953,0.567217 0.18837,0.196832 0.46986,0.196832 0.20953,0 0.35768,-0.110056 0.14816,-0.110057 0.23493,-0.351336 z m -1.25084,-0.615896 h 1.25507 q -0.0254,-0.283608 -0.14392,-0.425412 -0.18201,-0.220114 -0.47197,-0.220114 -0.26244,0 -0.44234,0.175668 -0.17779,0.175668 -0.19684,0.469858 z m 2.12283,1.339732 v -2.247701 h 0.34075 v 0.315355 q 0.10583,-0.165085 0.28149,-0.26456 0.17567,-0.101591 0.40002,-0.101591 0.24974,0 0.40848,0.103708 0.16085,0.103707 0.22646,0.289957 0.26668,-0.393665 0.69421,-0.393665 0.3344,0 0.5143,0.18625 0.1799,0.184134 0.1799,0.569333 v 1.542914 h -0.37885 v -1.415925 q 0,-0.22858 -0.0381,-0.328054 -0.036,-0.101591 -0.13334,-0.162969 -0.0974,-0.06138 -0.22858,-0.06138 -0.23705,0 -0.39367,0.158736 -0.15662,0.156619 -0.15662,0.503722 v 1.305868 h -0.38096 v -1.460371 q 0,-0.253977 -0.0931,-0.380966 -0.0931,-0.126989 -0.30477,-0.126989 -0.16085,0 -0.29842,0.08466 -0.13546,0.08466 -0.19684,0.247628 -0.0614,0.162969 -0.0614,0.469859 v 1.16618 z m 5.07744,-0.277259 q -0.21165,0.179901 -0.40848,0.253978 -0.19472,0.07408 -0.41907,0.07408 -0.37038,0 -0.56933,-0.1799 -0.19895,-0.182018 -0.19895,-0.463509 0,-0.165086 0.0741,-0.30054 0.0762,-0.137572 0.19683,-0.220114 0.12276,-0.08254 0.27514,-0.124873 0.11218,-0.02963 0.33864,-0.05715 0.46139,-0.05503 0.67939,-0.131221 0.002,-0.07831 0.002,-0.09947 0,-0.232813 -0.10794,-0.328054 -0.14604,-0.129105 -0.43388,-0.129105 -0.2688,0 -0.3979,0.09524 -0.12699,0.09313 -0.18837,0.332288 l -0.3725,-0.0508 q 0.0508,-0.239162 0.1672,-0.385199 0.11641,-0.148154 0.33652,-0.226464 0.22012,-0.08043 0.51008,-0.08043 0.28784,0 0.46774,0.06773 0.1799,0.06773 0.26456,0.171434 0.0847,0.101591 0.11852,0.258211 0.019,0.09736 0.019,0.351335 v 0.507956 q 0,0.531236 0.0233,0.67304 0.0254,0.139688 0.0974,0.268793 h -0.3979 q -0.0593,-0.118523 -0.0762,-0.277259 z m -0.0318,-0.850825 q -0.20742,0.08466 -0.62225,0.143921 -0.23492,0.03386 -0.33228,0.07619 -0.0974,0.04233 -0.15027,0.124873 -0.0529,0.08043 -0.0529,0.1799 0,0.152387 0.11429,0.253978 0.1164,0.101591 0.33863,0.101591 0.22012,0 0.39155,-0.09524 0.17144,-0.09736 0.25186,-0.26456 0.0614,-0.129105 0.0614,-0.380966 z m 1.80747,0.787331 0.055,0.33652 q -0.16085,0.03386 -0.28784,0.03386 -0.20742,0 -0.32171,-0.06561 -0.11429,-0.06561 -0.16085,-0.171435 -0.0466,-0.107941 -0.0466,-0.45081 v -1.293169 h -0.27938 v -0.296307 h 0.27938 v -0.556634 l 0.37885,-0.22858 v 0.785214 h 0.38308 v 0.296307 h -0.38308 v 1.314334 q 0,0.162969 0.0191,0.209531 0.0212,0.04656 0.0656,0.07408 0.0466,0.02751 0.13122,0.02751 0.0635,0 0.1672,-0.01481 z m 0.37462,-2.323895 V 21.39034 h 0.38096 v 0.438111 z m 0,2.664648 v -2.247701 h 0.38096 v 2.247701 z m 0.963,0 V 21.39034 h 0.38096 v 1.769377 l 0.90162,-0.914319 h 0.49314 l -0.85929,0.833893 0.94607,1.413808 h -0.46986 l -0.74289,-1.149248 -0.26879,0.25821 v 0.891038 z"
     id="text5"
     style="font-size:4.33455px;font-family:Arial;-inkscape-font-specification:'Arial, Normal';fill:#ffffff;stroke-width:0.266962;stroke-linejoin:round;paint-order:stroke fill markers"
     aria-label="Komplexe Ungeziefer Auslschungs Kinematik" /></svg>
