<?xml version="1.0" encoding="UTF-8" standalone="no"?>
<!-- Created with Inkscape (http://www.inkscape.org/) -->

<svg
   width="210mm"
   height="21.837397mm"
   viewBox="0 0 210 21.837397"
   version="1.1"
   id="svg1"
   xml:space="preserve"
   xmlns:xlink="http://www.w3.org/1999/xlink"
   xmlns="http://www.w3.org/2000/svg"
   xmlns:svg="http://www.w3.org/2000/svg"><defs
     id="defs1"><linearGradient
       id="linearGradient15"><stop
         style="stop-color:#e78643;stop-opacity:1;"
         offset="0"
         id="stop13" /><stop
         style="stop-color:#e26948;stop-opacity:1;"
         offset="0.5"
         id="stop15" /><stop
         style="stop-color:#e05b4a;stop-opacity:0.67605376;"
         offset="0.75"
         id="stop16" /><stop
         style="stop-color:#de4d4d;stop-opacity:0.25;"
         offset="1"
         id="stop14" /></linearGradient><linearGradient
       id="linearGradient11"><stop
         style="stop-color:#e78643;stop-opacity:1;"
         offset="0"
         id="stop9" /><stop
         style="stop-color:#de4d4d;stop-opacity:1;"
         offset="1"
         id="stop10" /></linearGradient><linearGradient
       id="linearGradient1"><stop
         style="stop-color:#e78643;stop-opacity:1;"
         offset="0"
         id="stop1" /><stop
         style="stop-color:#de4d4d;stop-opacity:1;"
         offset="1"
         id="stop2" /></linearGradient><linearGradient
       xlink:href="#linearGradient11"
       id="linearGradient2"
       x1="0"
       y1="10.918698"
       x2="210"
       y2="10.918698"
       gradientUnits="userSpaceOnUse" /><linearGradient
       id="linearGradient54"><stop
         style="stop-color:#63ccd8;stop-opacity:1;"
         offset="0"
         id="stop54" /><stop
         style="stop-color:#63ccd8;stop-opacity:0;"
         offset="1"
         id="stop55" /></linearGradient><linearGradient
       id="linearGradient44"><stop
         style="stop-color:#000000;stop-opacity:0.43478373;"
         offset="0"
         id="stop43" /><stop
         style="stop-color:#e36a48;stop-opacity:0;"
         offset="1"
         id="stop44" /></linearGradient><linearGradient
       id="linearGradient37"><stop
         style="stop-color:#e78643;stop-opacity:1;"
         offset="0"
         id="stop36" /><stop
         style="stop-color:#e78643;stop-opacity:1;"
         offset="0.12197068"
         id="stop38" /><stop
         style="stop-color:#de4d4d;stop-opacity:1;"
         offset="1"
         id="stop37" /></linearGradient><linearGradient
       id="linearGradient35"><stop
         style="stop-color:#000000;stop-opacity:0.43478373;"
         offset="0.56926733"
         id="stop34" /><stop
         style="stop-color:#e36a48;stop-opacity:0;"
         offset="0.85184592"
         id="stop35" /></linearGradient><linearGradient
       id="linearGradient33"><stop
         style="stop-color:#000000;stop-opacity:0.30383381;"
         offset="0.40095311"
         id="stop32" /><stop
         style="stop-color:#e36a48;stop-opacity:0;"
         offset="1"
         id="stop33" /></linearGradient><linearGradient
       id="linearGradient24"><stop
         style="stop-color:#9e9e9e;stop-opacity:1;"
         offset="0.22264741"
         id="stop23" /><stop
         style="stop-color:#585858;stop-opacity:1;"
         offset="1"
         id="stop24" /></linearGradient><linearGradient
       id="linearGradient12"><stop
         style="stop-color:#de4d4d;stop-opacity:1;"
         offset="0.22264741"
         id="stop11" /><stop
         style="stop-color:#de4d4d;stop-opacity:1;"
         offset="1"
         id="stop12" /></linearGradient><linearGradient
       id="linearGradient8"><stop
         style="stop-color:#e78643;stop-opacity:1;"
         offset="0.22264741"
         id="stop7" /><stop
         style="stop-color:#de4d4d;stop-opacity:1;"
         offset="1"
         id="stop8" /></linearGradient><linearGradient
       id="linearGradient6"><stop
         style="stop-color:#e78643;stop-opacity:1;"
         offset="0.30296028"
         id="stop5" /><stop
         style="stop-color:#de4d4d;stop-opacity:1;"
         offset="1"
         id="stop6" /></linearGradient><linearGradient
       xlink:href="#linearGradient1"
       id="linearGradient2-6"
       x1="101.77094"
       y1="179.32358"
       x2="101.77094"
       y2="205.16226"
       gradientUnits="userSpaceOnUse"
       gradientTransform="matrix(1.0559807,0,0,1.0624696,-6.6656936,-11.686495)" /><linearGradient
       xlink:href="#linearGradient1"
       id="linearGradient4"
       gradientUnits="userSpaceOnUse"
       gradientTransform="matrix(1.1570031,0,0,1.1641128,-16.946658,-22.165795)"
       x1="101.77111"
       y1="212.45471"
       x2="101.77094"
       y2="205.16225" /><radialGradient
       xlink:href="#linearGradient6"
       id="radialGradient5"
       cx="100.80283"
       cy="179.40132"
       fx="100.80283"
       fy="179.40132"
       r="54.805958"
       gradientTransform="matrix(-1.3618099,-0.00342284,9.9014107e-4,-0.39393815,237.89949,266.09404)"
       gradientUnits="userSpaceOnUse" /><radialGradient
       xlink:href="#linearGradient8"
       id="radialGradient6"
       cx="100.51147"
       cy="208.29292"
       fx="100.51147"
       fy="208.29292"
       r="60.049076"
       gradientTransform="matrix(1.1541981,0,0,0.25045739,-15.736634,157.48698)"
       gradientUnits="userSpaceOnUse" /><linearGradient
       xlink:href="#linearGradient12"
       id="linearGradient10"
       x1="86.746925"
       y1="170.12222"
       x2="104.54833"
       y2="171.44501"
       gradientUnits="userSpaceOnUse" /><linearGradient
       xlink:href="#linearGradient37"
       id="linearGradient14"
       x1="96.732697"
       y1="128.62112"
       x2="99.121155"
       y2="149.37215"
       gradientUnits="userSpaceOnUse"
       gradientTransform="matrix(1.1285738,0,0,1.6059791,-9.0982796,-88.857856)" /><linearGradient
       xlink:href="#linearGradient8"
       id="linearGradient16"
       x1="104.54832"
       y1="133.25386"
       x2="118.0173"
       y2="150.3707"
       gradientUnits="userSpaceOnUse"
       gradientTransform="matrix(1.1285738,0,0,1.1285738,-9.8463636,-18.6062)" /><linearGradient
       xlink:href="#linearGradient8"
       id="linearGradient18"
       x1="109.09007"
       y1="99.135513"
       x2="116.80418"
       y2="129.44072"
       gradientUnits="userSpaceOnUse" /><linearGradient
       xlink:href="#linearGradient8"
       id="linearGradient20"
       x1="64.072426"
       y1="105.55778"
       x2="91.260551"
       y2="137.9377"
       gradientUnits="userSpaceOnUse" /><linearGradient
       xlink:href="#linearGradient24"
       id="linearGradient21"
       gradientUnits="userSpaceOnUse"
       gradientTransform="matrix(0.7221322,0,0,0.7645588,-93.115257,-249.86602)"
       x1="104.54832"
       y1="133.25386"
       x2="118.0173"
       y2="150.3707" /><linearGradient
       xlink:href="#linearGradient24"
       id="linearGradient22"
       gradientUnits="userSpaceOnUse"
       gradientTransform="matrix(-0.66522812,0.28097406,-0.36992465,-1.0231597,186.47582,243.6924)"
       x1="96.732697"
       y1="128.62112"
       x2="99.121155"
       y2="149.37215" /><linearGradient
       xlink:href="#linearGradient24"
       id="linearGradient25"
       gradientUnits="userSpaceOnUse"
       gradientTransform="matrix(0.38597475,0,0,0.40865148,-53.958247,-199.85523)"
       x1="104.54832"
       y1="133.25386"
       x2="118.0173"
       y2="150.3707" /><linearGradient
       xlink:href="#linearGradient24"
       id="linearGradient26"
       gradientUnits="userSpaceOnUse"
       gradientTransform="matrix(-0.35555991,0.15017872,-0.19772221,-0.5468719,126.07266,190.97541)"
       x1="96.732697"
       y1="128.62112"
       x2="99.121155"
       y2="149.37215" /><radialGradient
       xlink:href="#linearGradient44"
       id="radialGradient31"
       cx="102.60744"
       cy="192.12006"
       fx="102.60744"
       fy="192.12006"
       r="14.872"
       gradientTransform="matrix(1.8684591,0,0,0.70368821,-89.110363,56.927423)"
       gradientUnits="userSpaceOnUse" /><radialGradient
       xlink:href="#linearGradient33"
       id="radialGradient32"
       gradientUnits="userSpaceOnUse"
       gradientTransform="matrix(0.81238439,0,0,0.70368821,37.625935,-50.136391)"
       cx="102.60744"
       cy="192.12006"
       fx="102.60744"
       fy="192.12006"
       r="14.872" /><radialGradient
       xlink:href="#linearGradient35"
       id="radialGradient33"
       gradientUnits="userSpaceOnUse"
       gradientTransform="matrix(4.9926241,0,0,1.109008,-411.52069,-10.721401)"
       cx="102.60744"
       cy="192.12006"
       fx="102.60744"
       fy="192.12006"
       r="14.872" /><linearGradient
       xlink:href="#linearGradient44"
       id="linearGradient42"
       gradientUnits="userSpaceOnUse"
       x1="124.65702"
       y1="135.64372"
       x2="122.17848"
       y2="118.50678" /><radialGradient
       xlink:href="#linearGradient44"
       id="radialGradient51"
       cx="89.710388"
       cy="119.3876"
       fx="89.710388"
       fy="119.3876"
       r="18.131968"
       gradientTransform="matrix(1.7346259,4.6675442e-8,0,0.71977224,-65.220285,41.171468)"
       gradientUnits="userSpaceOnUse" /><linearGradient
       xlink:href="#linearGradient54"
       id="linearGradient55"
       x1="34.026402"
       y1="139.0815"
       x2="36.175564"
       y2="144.68361"
       gradientUnits="userSpaceOnUse"
       spreadMethod="reflect" /><linearGradient
       xlink:href="#linearGradient54"
       id="linearGradient3"
       gradientUnits="userSpaceOnUse"
       x1="34.026402"
       y1="139.0815"
       x2="36.175564"
       y2="144.68361"
       spreadMethod="reflect" /><linearGradient
       xlink:href="#linearGradient54"
       id="linearGradient5"
       gradientUnits="userSpaceOnUse"
       x1="34.026402"
       y1="139.0815"
       x2="36.175564"
       y2="144.68361"
       spreadMethod="reflect" /><linearGradient
       xlink:href="#linearGradient15"
       id="linearGradient13"
       gradientUnits="userSpaceOnUse"
       x1="0"
       y1="10.918698"
       x2="210"
       y2="10.918698"
       gradientTransform="translate(-3.5967529e-6)" /></defs><g
     id="layer1"><rect
       style="fill:url(#linearGradient2);stroke:none;stroke-width:1.5;stroke-linejoin:round;paint-order:stroke fill markers"
       id="rect1"
       width="210"
       height="21.837397"
       x="2.4868996e-14"
       y="0"
       ry="0" /><g
       fill="currentColor"
       id="g2"
       transform="matrix(0.41300536,0,0,0.41300536,155.72401,10.660984)"
       style="fill:#ffffff;fill-opacity:1"><path
         d="M 14,6 H 6 v 8 h 8 z"
         id="path1-43"
         style="fill:#ffffff;fill-opacity:1" /><path
         fill-rule="evenodd"
         d="M 9.25,3 V 1.75 a 0.75,0.75 0 0 1 1.5,0 V 3 h 1.5 V 1.75 a 0.75,0.75 0 0 1 1.5,0 V 3 h 0.5 A 2.75,2.75 0 0 1 17,5.75 v 0.5 h 1.25 a 0.75,0.75 0 0 1 0,1.5 H 17 v 1.5 h 1.25 a 0.75,0.75 0 0 1 0,1.5 H 17 v 1.5 h 1.25 a 0.75,0.75 0 0 1 0,1.5 H 17 v 0.5 A 2.75,2.75 0 0 1 14.25,17 h -0.5 v 1.25 a 0.75,0.75 0 0 1 -1.5,0 V 17 h -1.5 v 1.25 a 0.75,0.75 0 0 1 -1.5,0 V 17 h -1.5 v 1.25 a 0.75,0.75 0 0 1 -1.5,0 V 17 H 5.75 A 2.75,2.75 0 0 1 3,14.25 v -0.5 H 1.75 a 0.75,0.75 0 0 1 0,-1.5 H 3 v -1.5 H 1.75 a 0.75,0.75 0 0 1 0,-1.5 H 3 V 7.75 H 1.75 a 0.75,0.75 0 0 1 0,-1.5 H 3 V 5.75 A 2.75,2.75 0 0 1 5.75,3 h 0.5 V 1.75 a 0.75,0.75 0 0 1 1.5,0 V 3 Z M 4.5,5.75 C 4.5,5.06 5.06,4.5 5.75,4.5 h 8.5 c 0.69,0 1.25,0.56 1.25,1.25 v 8.5 c 0,0.69 -0.56,1.25 -1.25,1.25 H 5.75 C 5.06,15.5 4.5,14.94 4.5,14.25 Z"
         clip-rule="evenodd"
         id="path2"
         style="fill:#ffffff;fill-opacity:1" /></g><path
       fill="currentColor"
       d="m 186.75338,12.026751 a 1.3229167,1.3229167 0 0 0 -0.38827,-0.178257 0.26008542,0.26008542 0 0 0 -0.0163,-0.390496 1.3223875,1.3223875 0 0 0 -2.03164,1.56817 0.25849792,0.25849792 0 0 0 0.37379,0.114901 c 0.002,0.142427 0.0263,0.285202 0.0746,0.422336 l -0.16782,-0.0048 c -0.1673,-0.0046 -0.31924,-0.08448 -0.42109,-0.216434 l -0.35567,-0.460784 c -0.0792,-0.102629 -0.19502,-0.170334 -0.32488,-0.187078 l -0.25236,-0.03249 a 0.19949583,0.19949583 0 0 0 -0.22201,0.171368 c -0.0138,0.107606 0.0638,0.208139 0.17136,0.222014 l 0.25027,0.03411 c 0.026,0.0034 0.0452,0.01523 0.0614,0.03617 l 0.35567,0.460785 c 0.1746,0.226203 0.43842,0.360144 0.7222,0.368381 l 0.41201,0.01287 0.009,0.01036 -0.0966,0.52574 -0.17145,-0.02207 a 0.98425,0.98425 0 0 0 -0.73867,0.199159 l -0.14243,0.109936 c -0.0859,0.06628 -0.10212,0.192465 -0.0358,0.278337 0.0663,0.08587 0.1925,0.102093 0.27834,0.03583 l 0.14243,-0.109936 c 0.12776,-0.09861 0.28594,-0.140494 0.44552,-0.119948 l 0.15046,0.01956 -0.0864,0.471778 a 4.41325,4.41325 0 0 0 0.85321,3.507314 1.1287125,1.1287125 0 0 0 1.57901,0.201034 1.1191875,1.1191875 0 0 0 0.39667,-0.590282 l 0.37154,-1.338615 0.006,0.0011 0.026,0.0034 a 1.2779375,1.2779375 0 0 0 1.42842,-1.102563 l 0.003,-0.02596 4.2e-4,-0.006 1.38886,-0.0202 c 0.24446,-0.0029 0.47965,-0.08613 0.67171,-0.234381 a 1.1281833,1.1281833 0 0 0 0.20727,-1.576132 l -3.2e-4,-4.19e-4 a 4.4238333,4.4238333 0 0 0 -3.17791,-1.71562 l -0.49173,-0.0369 0.0176,-0.138249 c 0.0205,-0.159579 0.10112,-0.301995 0.22889,-0.400614 l 0.14243,-0.109936 c 0.0859,-0.06628 0.10211,-0.192459 0.0358,-0.27833 -0.0663,-0.08587 -0.1925,-0.102094 -0.27833,-0.03584 l -0.14243,0.109935 c -0.21154,0.163284 -0.34746,0.39855 -0.37978,0.664139 l -0.0203,0.159413 -0.52013,-0.03905 -0.009,-0.01305 0.0893,-0.400477 a 0.9445625,0.9445625 0 0 0 -0.17361,-0.791987 l -0.35566,-0.460783 c -0.0162,-0.02095 -0.0228,-0.04259 -0.0194,-0.06856 l 0.0325,-0.252354 c 0.0138,-0.107606 -0.0638,-0.20814 -0.17137,-0.222014 a 0.19949583,0.19949583 0 0 0 -0.22201,0.171368 l -0.0325,0.252354 c -0.0167,0.129884 0.0195,0.25905 0.0987,0.361679 l 0.35567,0.460784 c 0.10185,0.131952 0.14071,0.299153 0.10272,0.462169 z m 0.49154,0.612596 0.42466,0.03185 2.36972,3.070077 -0.66091,0.0098 a 1.6589375,1.6589375 0 0 1 -1.33195,-0.643068 l -0.94737,-1.227373 a 1.3255625,1.3255625 0 0 0 0.14585,-1.24129 m -2.01195,1.552974 a 1.3255625,1.3255625 0 0 0 1.23776,0.173317 l 0.94736,1.22736 a 1.6562917,1.6562917 0 0 1 0.28472,1.451405 l -0.17688,0.636878 -2.36972,-3.070077 z m 5.13687,1.544162 -1.13927,-1.475974 2.36288,0.304218 a 0.8651875,0.8651875 0 0 1 -0.28053,0.986275 0.85460417,0.85460417 0 0 1 -0.51313,0.179155 z M 188.484,12.732095 a 4.15925,4.15925 0 0 1 2.932,1.542113 l -2.41484,-0.310909 -0.97695,-1.265689 z m -1.04659,5.267514 -0.11498,0.41396 1.6e-4,2.1e-4 a 0.85460417,0.85460417 0 0 1 -0.30334,0.451392 0.86386458,0.86386458 0 0 1 -1.02528,0.02098 l 0.30417,-2.362514 z m -1.67974,0.641447 a 4.1460208,4.1460208 0 0 1 -0.74882,-3.226581 l 0.0833,-0.453317 0.97695,1.265689 z m -1.27636,-5.94347 a 0.95514583,0.95514583 0 0 1 0.20279,-0.85575 l 0.002,-0.0012 0.0559,0.07247 c 0.15634,0.202536 0.11765,0.492764 -0.0834,0.647965 z m 1.50593,-1.162389 -0.17678,0.136448 c -0.20107,0.155201 -0.49163,0.119109 -0.64796,-0.08343 l -0.0559,-0.07247 0.002,-0.0012 a 0.95514583,0.95514583 0 0 1 0.87937,0.02079"
       id="path1-93"
       style="fill:#ffffff;fill-opacity:1;stroke-width:0.264583" /><path
       fill="currentColor"
       fill-rule="evenodd"
       d="m 203.05118,4.4166317 a 0.26458333,0.26458333 0 0 1 0.0784,0.36587 l -1.2196,1.884821 c 0.0249,0.116329 0.0228,0.261836 -0.003,0.428564 l 1.193,-0.07578 0.40663,-0.628422 a 0.26458333,0.26458333 0 0 1 0.17291,-0.116279 l 1.25655,-0.237302 a 0.26462158,0.26462158 0 0 1 0.0984,0.520011 l -1.14528,0.21633 -0.41756,0.645304 a 0.26458333,0.26458333 0 0 1 -0.20539,0.120159 l -1.47882,0.09379 q -0.0132,8.74e-4 -0.0257,3.72e-4 c -0.12371,0.340663 -0.31319,0.720709 -0.55927,1.101005 q -0.13871,0.214361 -0.28499,0.404909 l 0.56899,2.0365343 a 0.26458333,0.26458333 0 0 1 -0.0661,0.256608 l -0.66279,0.674131 0.45023,0.723393 a 0.26464972,0.26464972 0 1 1 -0.44941,0.279605 l -0.56011,-0.900374 a 0.26458333,0.26458333 0 0 1 0.0361,-0.325171 l 0.70108,-0.713325 -0.43279,-1.5500683 q -0.11972,0.121701 -0.23611,0.222239 l 0.0581,0.9451903 a 0.26458333,0.26458333 0 0 1 -0.10117,0.224466 l -0.80443,0.631007 0.0117,1.285764 a 0.26458333,0.26458333 0 0 1 -0.52914,0.0049 l -0.0128,-1.416015 a 0.26458333,0.26458333 0 0 1 0.10123,-0.210563 l 0.79777,-0.625555 -0.0308,-0.503325 c -0.179,0.07547 -0.33234,0.08403 -0.44274,0.01259 -0.1104,-0.07143 -0.16528,-0.2150363 -0.16992,-0.4090193 l -0.47151,0.178334 -0.24397,0.9838923 a 0.26458333,0.26458333 0 0 1 -0.1506,0.178619 l -1.29693,0.568541 a 0.2646926,0.2646926 0 0 1 -0.21257,-0.484831 l 1.17791,-0.516037 0.24577,-0.9925003 a 0.26458333,0.26458333 0 0 1 0.16355,-0.184102 l 0.886,-0.33431 q 0.0438,-0.14753 0.10598,-0.306444 l -1.59153,0.240204 -0.36321,0.9319473 a 0.26458333,0.26458333 0 0 1 -0.28181,0.166198 l -1.05082,-0.142002 a 0.26465611,0.26465611 0 0 1 0.0709,-0.5245423 l 0.84437,0.114301 0.34314,-0.880965 a 0.26458333,0.26458333 0 0 1 0.20715,-0.165341 l 2.09101,-0.31566 a 6.35,6.35 0 0 1 0.25244,-0.425656 c 0.24622,-0.380518 0.51513,-0.708852 0.77519,-0.961296 a 0.26458333,0.26458333 0 0 1 -0.0102,-0.02362 l -0.5204,-1.387421 a 0.26458333,0.26458333 0 0 1 0.0255,-0.236584 l 0.41755,-0.645305 -0.27194,-1.133366 a 0.26461986,0.26461986 0 0 1 0.51467,-0.123299 l 0.2984,1.243454 a 0.26458333,0.26458333 0 0 1 -0.0352,0.205373 l -0.40677,0.628644 0.41969,1.119303 c 0.142,-0.0928 0.27406,-0.154197 0.3904,-0.179132 l 1.21931,-1.884375 a 0.26458333,0.26458333 0 0 1 0.36588,-0.0784 m -5.20203,2.621651 c -0.65596,-0.42445 -0.80077,-0.757343 -0.82607,-0.916473 l -0.003,-0.02309 2.4189,1.141321 a 1.3229167,1.3229167 0 0 1 -0.21302,0.08812 c -0.3165,0.09805 -0.77391,0.100207 -1.37678,-0.289893 m -1.07243,-1.639354 c -0.33956,0.30562 -0.65848,1.149629 0.78518,2.083772 1.08446,0.701717 1.93658,0.422693 2.43533,0.02059 0.16524,-0.132588 0.29161,-0.279295 0.37498,-0.408133 z m 6.01406,4.8369093 c 0.65597,0.424456 1.01896,0.420147 1.17448,0.378017 q 0.0114,-0.003 0.0223,-0.0067 l -2.03223,-1.7388493 q -0.007,0.111846 0.007,0.230421 c 0.0403,0.328892 0.2257,0.747018 0.82858,1.1371183 m 1.93485,0.306547 c -0.13965,0.43498 -0.77888,1.071727 -2.22254,0.137583 -1.08447,-0.7017223 -1.17909,-1.5933483 -1.01665,-2.2130683 a 1.7991667,1.7991667 0 0 1 0.21865,-0.509287 z"
       clip-rule="evenodd"
       id="path1-2"
       style="fill:#ffffff;fill-opacity:1;stroke-width:0.264583" /><path
       fill="currentColor"
       d="m 168.72628,3.4922017 v 1.587796 h 3.96082 v 2.171435 h 1.30685 c -0.0666,2.162701 -0.45666,3.6318403 -0.97018,4.5420883 -0.28893,0.512102 -0.60547,0.848028 -0.93246,1.05286 -0.88254,-0.492429 -1.62493,-1.617118 -1.62493,-2.9532093 h -0.77733 c 0,2.2151043 1.6217,4.0608033 3.43391,3.9961723 0.90609,-0.03232 1.80661,-0.590916 2.4402,-1.71394 0.60672,-1.075362 1.00482,-2.6667773 1.07095,-4.9239713 h 0.97072 v -3.759273 h -8.87855 z m 14.43644,0.162951 v 0.746963 h -4.78061 v 1.87997 h 4.78049 v 0.746838 h 0.77732 v -0.746838 h 0.97862 v 0.746838 h 0.7772 v -0.746838 h 0.80794 v -1.880011 h -0.80781 v -0.746964 h -0.77733 v 0.746964 H 183.94 v -0.746964 h -0.77732 z m -16.43736,2.202211 v 3.488354 h 5.18454 v -3.488437 h -5.18458 z m 8.04637,1.394111 h 1.08468 c -0.0666,2.162701 -0.45666,3.6317983 -0.97022,4.5420873 -0.53818,0.953917 -1.17202,1.296913 -1.79097,1.318999 -0.16989,0.006 -0.34262,-0.01664 -0.51426,-0.06347 0.3655,-0.104599 0.72617,-0.344369 1.06405,-0.777491 0.0187,-0.03161 0.0374,-0.06363 0.0557,-0.09616 0.6068,-1.075404 1.00482,-2.6667773 1.07095,-4.9240133 z m -6.94501,2.641739 c 0,2.2151053 1.62161,4.0608043 3.43383,3.9961713 a 2.3540167,2.3540167 0 0 0 0.37057,-0.04325 c -0.96324,-0.178132 -1.82104,-0.878057 -2.34183,-1.84861 -0.41187,-0.561262 -0.68525,-1.293878 -0.68525,-2.1043503 z"
       id="path1-4"
       style="fill:#ffffff;fill-opacity:1;stroke-width:0.0415903" /><path
       fill="currentColor"
       d="m 132.02774,5.3431929 c -0.93156,0.00517 -1.80711,0.6929402 -2.44677,1.9228984 -0.002,0.00333 -0.003,0.00609 -0.006,0.00954 l -3.99164,6.9852807 -0.007,0.01149 c -0.74305,1.168885 -0.89976,2.270835 -0.43897,3.080395 0.4605,0.809101 1.48491,1.225286 2.85519,1.157525 h 8.09602 c 1.37025,0.06773 2.39464,-0.348424 2.8552,-1.157586 0.46085,-0.809714 0.30444,-1.912151 -0.43897,-3.081342 l -0.007,-0.01046 -4.03463,-7.0071452 c -0.002,-0.00448 -0.006,-0.00793 -0.008,-0.012398 -0.62639,-1.2225684 -1.49788,-1.903171 -2.42858,-1.8980714 z m -0.008,0.5754648 c 0.41448,-0.00402 0.80959,0.1977255 1.16513,0.5429437 0.35294,0.3428361 0.68378,0.8325226 1.01052,1.4715656 l 3.56331,6.187447 0.007,0.01046 c 0.36848,0.578182 0.62814,1.099995 0.76051,1.574567 0.1332,0.477595 0.13865,0.922209 -0.0459,1.295918 -0.18444,0.373708 -0.54874,0.636691 -1.03061,0.784397 -0.47866,0.14676 -1.08589,0.194916 -1.84461,0.156501 h -7.13991 c -0.69929,0.03533 -1.28145,-0.0048 -1.75299,-0.137416 -0.47516,-0.133537 -0.85119,-0.37093 -1.06207,-0.73001 -0.21101,-0.359113 -0.23684,-0.806171 -0.11741,-1.295003 0.11866,-0.485657 0.37761,-1.029028 0.77196,-1.648008 l 3.52608,-6.1665296 c 0.002,-0.00368 0.003,-0.00678 0.006,-0.010457 0.33133,-0.6379123 0.66479,-1.1297671 1.01916,-1.4762377 0.35645,-0.348516 0.74968,-0.5561649 1.16422,-0.5601959 z m 0.006,0.5706708 c -0.22911,0.00218 -0.4814,0.1147579 -0.77105,0.397894 -0.28963,0.2831981 -0.60126,0.7311721 -0.91701,1.340777 l -0.003,0.00575 -0.002,0.00471 -2.1595,3.7769985 1.88183,0.0057 -0.95427,-0.550638 0.28533,-0.494329 1.55933,0.900834 a 1.4657637,1.4657637 0 0 1 0.12596,-0.123063 l -0.9018,-1.561222 0.49429,-0.2853358 0.90276,1.5631158 c 0.0545,-0.01789 0.11089,-0.03176 0.16795,-0.04296 V 9.6202503 h 0.57064 V 11.43337 c 0.0557,0.012 0.10997,0.02736 0.16319,0.0458 l 0.90746,-1.5717271 0.49338,0.2853351 -0.91039,1.57646 a 1.435227,1.435227 0 0 1 0.11647,0.117353 l 1.57835,-0.910392 0.28536,0.494329 -1.57837,0.911307 a 1.4046903,1.4046903 0 0 1 0.043,0.159403 h 1.8217 v 0.570671 h -1.8217 a 1.4046903,1.4046903 0 0 1 -0.043,0.160317 l 1.57835,0.910362 -0.28534,0.493352 -1.57642,-0.909384 a 1.4657637,1.4657637 0 0 1 -0.11739,0.1183 l 0.90945,1.575512 -0.49335,0.285335 -0.90667,-1.569863 a 1.4046903,1.4046903 0 0 1 -0.16414,0.0458 v 1.810309 h -0.57066 v -1.804538 a 1.4046903,1.4046903 0 0 1 -0.16887,-0.04488 l -0.90181,1.563114 -0.49433,-0.285335 0.90275,-1.563115 a 1.435227,1.435227 0 0 1 -0.12411,-0.12404 l -1.56318,0.902728 -0.2853,-0.493352 0.92566,-0.534363 h -2.78648 l -0.43896,0.767236 -0.003,0.0067 -0.003,0.0056 c -0.37753,0.590856 -0.60854,1.092086 -0.70525,1.48772 -0.0966,0.395665 -0.0626,0.669367 0.0554,0.870297 0.11803,0.200932 0.34057,0.362624 0.72427,0.47045 0.38376,0.107852 0.91687,0.151156 1.58412,0.116436 l 0.008,-10e-4 h 7.15415 l 0.008,9.22e-4 c 0.72475,0.03765 1.27927,-0.01429 1.66229,-0.131736 0.38306,-0.117414 0.58264,-0.284662 0.68519,-0.492404 0.10249,-0.207711 0.11849,-0.49546 0.008,-0.889353 -0.10985,-0.393863 -0.34538,-0.878847 -0.6985,-1.43141 l -0.002,-0.0056 -0.003,-0.0057 -3.57085,-6.1980437 -0.002,-0.00666 -0.003,-0.00666 C 133.38735,7.5939183 133.0793,7.1488756 132.79308,6.870869 132.5068,6.5928933 132.25969,6.4869603 132.03058,6.4891597 Z m -0.02,5.4822625 c -0.33001,0 -0.62265,0.195526 -0.76342,0.469533 l -0.0792,0.155523 -0.17559,-9.81e-4 -3.12812,-0.01046 -0.28247,0.492405 h 3.60053 l 0.081,0.15076 c 0.14462,0.270556 0.42141,0.455181 0.74724,0.455181 0.4724,0 0.85594,-0.383541 0.85594,-0.855946 0,-0.472494 -0.38354,-0.856005 -0.85594,-0.856005 z"
       id="path1-7"
       style="fill:#ffffff;fill-opacity:1;stroke-width:0.0305367" /><path
       fill="currentColor"
       d="m 144.6252,10.092832 h 1.89357 l -2.46165,-4.2646341 c -0.16053,-0.263452 -0.25521,-0.55572 -0.25521,-0.880918 a 1.6461651,1.6461651 0 0 1 3.23964,-0.411645 h 1.70009 v -1.02911 c 0,-0.452809 0.37049,-0.8232891 0.8233,-0.8232891 v 1.0661591 l 0.65449,-0.654513 h 1.81537 v 0.823287 h -1.47781 l -0.99205,0.992062 v 0.0741 l 0.99205,0.992063 h 1.47781 v 0.82329 h -1.81537 l -0.65449,-0.654516 v 1.066152 a 0.82328838,0.82328838 0 0 1 -0.8233,-0.823289 v -1.02911 h -1.70009 c -0.0412,0.16054 -0.10704,0.312849 -0.18936,0.452808 l 2.46987,4.2811001 h 1.88945 a 0.82328838,0.82328838 0 0 1 0.82329,0.823289 v 0.411643 h -8.23289 v -0.411643 c 0,-0.45281 0.37048,-0.823289 0.82329,-0.823289 m 1.60953,-3.7047981 c -0.23052,0.131731 -0.49809,0.205822 -0.78625,0.205822 l 2.02118,3.4989761 h 0.90151 z m -0.78625,-2.264043 a 0.82328838,0.82328838 0 0 0 -0.82328,0.823289 c 0,0.456924 0.36637,0.823287 0.82328,0.823287 0.45693,0 0.82329,-0.366363 0.82329,-0.823287 a 0.82328838,0.82328838 0 0 0 -0.82329,-0.823289"
       id="path1-8"
       style="fill:#ffffff;fill-opacity:1;stroke-width:0.411643" /><rect
       style="fill:url(#linearGradient13);stroke:none;stroke-width:1.5;stroke-linejoin:round;paint-order:stroke fill markers"
       id="rect7"
       width="210"
       height="21.837397"
       x="-1.9073486e-06"
       y="0"
       ry="0" /><rect
       style="fill:#252525;fill-opacity:1;stroke:none;stroke-width:1.26725;stroke-linejoin:round;paint-order:stroke fill markers"
       id="rect5"
       width="22.135578"
       height="18.449009"
       x="2.0327365"
       y="1.6941943"
       ry="2.3521664" /><path
       d="m 29.309392,3.1374284 h 3.104886 v 3.7971452 l 3.255675,-3.7971452 h 4.12614 L 36.136029,6.9277196 39.96059,13.18547 H 36.136029 L 34.018126,9.0524759 32.414278,10.731719 v 2.453751 h -3.104886 z m 11.501101,7.2515876 h 2.981513 V 13.18547 H 40.810493 Z M 52.201928,3.1374284 h 3.098032 v 5.9904421 q 0,0.8910265 -0.281017,1.6860965 -0.274162,0.788216 -0.870464,1.384519 -0.589449,0.589449 -1.240584,0.82934 -0.904735,0.335849 -2.172735,0.335849 -0.733383,0 -1.603848,-0.102811 -0.86361,-0.102811 -1.446205,-0.404389 -0.582594,-0.308432 -1.069232,-0.870465 -0.479784,-0.562032 -0.657989,-1.158334 -0.28787,-0.9595679 -0.28787,-1.6998055 V 3.1374284 h 3.098031 v 6.1343772 q 0,0.8224864 0.452368,1.2885614 0.459221,0.459222 1.268,0.459222 0.801924,0 1.254291,-0.452367 0.459222,-0.459222 0.459222,-1.2954164 z m 4.496258,7.2515876 h 2.981513 v 2.796454 h -2.981513 z m 11.035026,1.137773 H 64.196521 L 63.709883,13.18547 H 60.536457 L 64.31304,3.1374284 h 3.385902 L 71.475525,13.18547 H 68.226704 Z M 67.082077,9.3540542 65.971721,5.7419684 64.868218,9.3540542 Z m 5.209077,1.0349618 h 2.981513 v 2.796454 h -2.981513 z m 4.866379,-7.2515876 h 3.104886 v 3.7971452 l 3.255675,-3.7971452 h 4.12614 L 83.984169,6.9277196 87.808731,13.18547 H 83.984169 L 81.866267,9.0524759 80.262419,10.731719 v 2.453751 h -3.104886 z"
       id="text2"
       style="font-weight:900;font-size:14.0371px;font-family:Arial;-inkscape-font-specification:'Arial, Heavy';fill:#ffffff;stroke-width:0.864538;stroke-linejoin:round;paint-order:stroke fill markers"
       aria-label="K.U.A.K" /><g
       id="layer1-3"
       transform="matrix(0.11685796,0,0,0.11685796,2.0327364,-8.0330997)"><path
         id="path3"
         style="fill:url(#radialGradient6);stroke:none;stroke-width:3.44977;paint-order:stroke fill markers"
         d="m 100.80283,195.07598 a 60.049137,15.039578 0 0 0 -49.552261,6.55095 h -10.49681 v 8.48849 a 60.049137,15.039578 0 0 0 60.049071,15.04003 60.049137,15.039578 0 0 0 60.04908,-15.04003 v -8.48849 h -10.48662 a 60.049137,15.039578 0 0 0 -49.56246,-6.55095 z" /><ellipse
         style="fill:url(#linearGradient4);stroke:none;stroke-width:3.44977;paint-order:stroke fill markers"
         id="ellipse3"
         cx="100.80263"
         cy="201.62663"
         rx="60.049137"
         ry="15.039577" /><ellipse
         style="fill:url(#radialGradient33);stroke:none;stroke-width:10.4903;stroke-linecap:round;stroke-opacity:1;paint-order:stroke fill markers"
         id="ellipse33"
         cx="100.75969"
         cy="202.34129"
         rx="74.250305"
         ry="16.493166" /><path
         id="ellipse2"
         style="fill:url(#radialGradient5);stroke:none;stroke-width:3.14856;paint-order:stroke fill markers"
         d="m 100.80263,186.58706 a 54.806015,13.726414 0 0 0 -45.225661,5.97896 h -9.580293 v 7.74733 a 54.806015,13.726414 0 0 0 54.805954,13.72682 54.806015,13.726414 0 0 0 54.80596,-13.72682 v -7.74733 h -9.57099 a 54.806015,13.726414 0 0 0 -45.23497,-5.97896 z" /><ellipse
         style="fill:url(#linearGradient2-6);stroke:none;stroke-width:3.14856;paint-order:stroke fill markers"
         id="path1"
         cx="100.80245"
         cy="192.56577"
         rx="54.806015"
         ry="13.726414" /><ellipse
         style="fill:url(#radialGradient31);stroke:none;stroke-width:5.11194;stroke-linecap:round;stroke-opacity:1;paint-order:stroke fill markers"
         id="path30"
         cx="102.60744"
         cy="192.12006"
         rx="27.787724"
         ry="10.46525" /><path
         id="rect8"
         style="baseline-shift:baseline;display:inline;overflow:visible;vector-effect:none;fill:url(#linearGradient10);paint-order:stroke fill markers;enable-background:accumulate;stop-color:#000000;stop-opacity:1"
         d="m 92.03804,147.78465 h 12.51029 v 47.32072 l -13.039402,-2.64556 z" /><path
         id="rect10"
         style="fill:#e78643;fill-opacity:1;stroke-width:2.06578;paint-order:stroke fill markers"
         d="m 104.54832,147.78465 h 8.54195 v 42.16188 l -8.54195,5.15884 z" /><path
         id="rect12"
         style="fill:url(#linearGradient14);stroke-width:3.3657;paint-order:stroke fill markers"
         d="m 86.243351,125.46333 c -4.19771,2e-5 -7.600561,4.96277 -7.60035,11.08443 1.2e-5,6.12143 3.402798,11.08382 7.60035,11.08384 l 28.663439,3.39893 V 128.9375 l -26.994886,-3.20181 c -0.54758,-0.18037 -1.107178,-0.27172 -1.668553,-0.27236 z" /><ellipse
         style="fill:url(#linearGradient16);fill-opacity:1;stroke:none;stroke-width:2.82143;paint-order:stroke fill markers"
         id="path14"
         cx="115.74448"
         cy="140.01434"
         rx="7.6003699"
         ry="11.083872" /><path
         id="path17"
         style="fill:url(#linearGradient18);stroke:none;stroke-width:2.5;paint-order:stroke fill markers"
         d="m 122.81989,94.446431 -42.725554,14.550529 12.036991,1.91823 3.505729,6.21668 -0.330729,15.0797 20.701583,-7.14272 -1.95802,4.16047 a 7.6003699,11.083872 0 0 1 1.69447,-0.29869 7.6003699,11.083872 0 0 1 6.088,4.45089 l 4.22868,-11.75225 11.50782,-4.23282 -0.19843,-16.66668 -2.38074,-4.03438 z" /><path
         style="fill:url(#linearGradient20);stroke:none;stroke-width:2.5;paint-order:stroke fill markers"
         d="m 80.094335,108.99696 -3.676573,3.24455 -0.561208,17.0233 19.449772,2.94676 0.330729,-15.0797 -3.505729,-6.21668 z"
         id="path18" /><ellipse
         style="fill:url(#radialGradient32);stroke:none;stroke-width:3.37073;stroke-linecap:round;stroke-opacity:1;paint-order:stroke fill markers"
         id="ellipse32"
         cx="120.98261"
         cy="85.056229"
         rx="12.08178"
         ry="10.46525"
         transform="matrix(0,1,1,0,0,0)" /><path
         id="path20"
         style="fill:url(#linearGradient22);stroke-width:2.21441;paint-order:stroke fill markers"
         d="m 87.789485,127.18211 c 2.474307,-1.04508 3.336958,-5.05402 1.926751,-8.95405 -1.410032,-3.89992 -4.558824,-6.21426 -7.033037,-5.16923 l -24.557502,8.67489 5.088956,14.07534 23.528583,-8.38506 c 0.364313,-0.0214 0.715203,-0.10254 1.046249,-0.24189 z" /><ellipse
         style="fill:url(#linearGradient21);stroke:none;stroke-width:1.85761;paint-order:stroke fill markers"
         id="ellipse20"
         cx="-12.754365"
         cy="-142.40761"
         rx="4.8631926"
         ry="7.5088325"
         transform="matrix(-0.92119997,0.38908948,-0.34001055,-0.94042162,0,0)" /><path
         id="path24"
         style="fill:url(#linearGradient26);stroke-width:1.18359;paint-order:stroke fill markers"
         d="m 62.012043,132.66115 c 1.3225,-0.55858 1.783582,-2.70134 1.029835,-4.78588 -0.753652,-2.08448 -2.43666,-3.32147 -3.75911,-2.76291 l -1.812378,0.67696 2.720012,7.52318 1.262428,-0.52206 c 0.194723,-0.0114 0.382271,-0.0548 0.559213,-0.12929 z" /><ellipse
         style="fill:url(#linearGradient25);fill-opacity:1;stroke:none;stroke-width:0.99288;paint-order:stroke fill markers"
         id="ellipse24"
         cx="-11.005894"
         cy="-142.41945"
         rx="2.5993433"
         ry="4.0134201"
         transform="matrix(-0.92119997,0.38908948,-0.34001055,-0.94042162,0,0)" /><g
         id="path39"
         style="display:inline;fill:url(#linearGradient55);stroke:none"><path
           id="path51"
           style="fill:url(#linearGradient3);fill-opacity:1;stroke:none;stroke-linecap:round;paint-order:stroke fill markers"
           d="m 55.514958,124.80479 c -0.787678,-0.018 -1.571189,0.11931 -2.305803,0.4041 L 0,145.83813 v 12.87001 l 57.546875,-22.30975 c 3.090107,-1.19774 4.62391,-4.67396 3.425631,-7.76386 -0.877216,-2.26285 -3.031243,-3.77441 -5.457548,-3.82974 z" /><path
           style="fill:url(#linearGradient5);fill-opacity:1;stroke:none;stroke-linecap:round;paint-order:stroke fill markers"
           d="M 55.378213,130.80368 0,152.60438"
           id="path52" /></g><g
         id="path28"><path
           id="path53"
           style="fill:#63ccd8;stroke-linecap:round;paint-order:stroke fill markers"
           d="M 57.820243,128.84743 0,151.26415 v 2.68046 l 58.724581,-22.76709 a 1.25,1.25 0 0 0 0.713135,-1.61695 1.25,1.25 0 0 0 -1.617473,-0.71314 z" /></g><path
         style="fill:#de4d4d;fill-opacity:1;stroke:none;stroke-width:2.5;stroke-linecap:round;stroke-opacity:1;paint-order:stroke fill markers"
         d="m 114.04989,129.22932 1.95802,-4.16047 -8.71636,3.00743 z"
         id="path38" /><path
         id="path42"
         style="fill:url(#linearGradient42);stroke:none;stroke-width:2.5;paint-order:stroke fill markers"
         d="m 122.81989,94.446431 -42.725554,14.550529 12.036991,1.91823 3.505729,6.21668 -0.330729,15.0797 20.701583,-7.14272 -1.95802,4.16047 c 0.55534,-0.19203 1.12375,-0.29222 1.69447,-0.29869 2.39708,5.5e-4 4.6535,1.65021 6.088,4.45089 l 4.22868,-11.75225 11.50782,-4.23282 -0.19843,-16.66668 -2.38074,-4.03438 z" /><path
         id="path43"
         style="fill:url(#radialGradient51);stroke-width:3.3657;paint-order:stroke fill markers"
         d="m 107.29155,128.07628 -11.985223,4.13529 -15.143778,-2.29444 c -0.950341,1.85049 -1.51989,4.14082 -1.519804,6.63061 1.2e-5,6.12143 3.403018,11.08406 7.60057,11.08408 l 28.663365,3.39875 v -0.0124 c -3.84645,-0.62226 -6.75808,-5.36016 -6.76238,-11.00398 0.004,-5.64362 2.91606,-10.38122 6.76238,-11.00346 v -0.002 c -0.28825,0.0496 -0.57432,0.12331 -0.85679,0.22066 v 0 z" /><g
         id="g45"
         transform="matrix(0.23667658,-0.0812834,0,0.23667658,103.20383,106.45947)"
         style="fill:#000000;fill-opacity:0.481803;stroke-width:1.00109;stroke-dasharray:none"><path
           d="m 85.02714,84.742186 v -5.469433 l 3.509863,-9.698633 h 3.472656 z m -2.443262,2.864942 V 69.57412 h 3.075781 v 18.033008 z m 6.622852,0 -3.050977,-9.847461 2.108399,-1.847949 4.316015,11.69541 z"
           id="text45"
           style="font-size:25.4px;font-family:Bahnschrift;-inkscape-font-specification:'Bahnschrift, @wght=700';font-variation-settings:'wght' 700;fill:#000000;fill-opacity:0.481803;stroke-width:1.00109;stroke-linecap:round;stroke-dasharray:none;paint-order:stroke fill markers"
           aria-label="KUAK" /><path
           d="m 101.09241,88.670705 c -1.347716,0 -3.460246,-0.39687 -4.220926,-1.19062 -0.76067,-0.80202 -1.14101,-1.92237 -1.14101,-3.36104 V 70.451663 h 3.08818 v 13.754202 c 0,0.43821 0.10749,0.78134 0.32246,1.02939 0.21497,0.23978 1.570956,0.35967 1.951296,0.35967 0.38861,0 1.74873,-0.11989 1.9637,-0.35967 0.22324,-0.24805 0.33486,-0.59118 0.33486,-1.02939 V 70.451663 h 3.08819 v 13.667382 c 0,1.43867 -0.38447,2.55902 -1.15342,3.36104 -0.76068,0.79375 -2.87734,1.19062 -4.23333,1.19062 z"
           style="font-size:25.4px;font-family:Bahnschrift;-inkscape-font-specification:'Bahnschrift, @wght=700';font-variation-settings:'wght' 700;fill:#000000;fill-opacity:0.481803;stroke-width:1.00109;stroke-linecap:round;stroke-dasharray:none;paint-order:stroke fill markers"
           id="path1-9" /><path
           d="m 108.82636,87.703443 5.88146,-18.033015 h 2.94921 l 5.88144,18.033015 h -4.16956 l -3.18649,-11.819441 -3.18649,11.819441 z m 4.00008,-2.802936 v -2.877344 h 6.71197 v 2.877344 z"
           style="font-size:25.4px;font-family:Bahnschrift;-inkscape-font-specification:'Bahnschrift, @wght=700';font-variation-settings:'wght' 700;fill:#000000;fill-opacity:0.481803;stroke-width:1.00109;stroke-linecap:round;stroke-dasharray:none;paint-order:stroke fill markers"
           id="path1-1" /><path
           d="m 129.58536,84.722812 v -5.469433 l 3.50986,-9.698633 h 3.47266 z m -2.44326,2.864942 V 69.554746 h 3.07578 v 18.033008 z m 6.62285,0 -3.05098,-9.847461 2.1084,-1.847949 4.31602,11.69541 z"
           id="path45"
           style="font-size:25.4px;font-family:Bahnschrift;-inkscape-font-specification:'Bahnschrift, @wght=700';font-variation-settings:'wght' 700;fill:#000000;fill-opacity:0.481803;stroke-width:1.00109;stroke-linecap:round;stroke-dasharray:none;paint-order:stroke fill markers"
           aria-label="KUAK" /></g></g><path
       d="m 29.30939,18.49642 v -3.102759 h 0.410597 v 1.538681 l 1.540798,-1.538681 h 0.556634 l -1.301635,1.257189 1.35878,1.84557 h -0.541819 l -1.104802,-1.570428 -0.507956,0.495256 v 1.075172 z m 2.71756,-1.123851 q 0,-0.624361 0.347103,-0.924901 0.289957,-0.249745 0.706904,-0.249745 0.463509,0 0.757699,0.304773 0.294191,0.302657 0.294191,0.838126 0,0.433878 -0.131222,0.683623 -0.129105,0.247628 -0.378849,0.385199 -0.247629,0.137571 -0.541819,0.137571 -0.471975,0 -0.764049,-0.302656 -0.289958,-0.302657 -0.289958,-0.87199 z m 0.391549,0 q 0,0.431762 0.188366,0.647643 0.188367,0.213764 0.474092,0.213764 0.283608,0 0.471975,-0.21588 0.188366,-0.215881 0.188366,-0.658226 0,-0.416946 -0.190483,-0.63071 -0.188366,-0.215881 -0.469858,-0.215881 -0.285725,0 -0.474092,0.213764 -0.188366,0.213765 -0.188366,0.645526 z m 2.160925,1.123851 v -2.247701 h 0.340753 v 0.315355 q 0.105824,-0.165085 0.281492,-0.26456 0.175668,-0.101591 0.400015,-0.101591 0.249744,0 0.40848,0.103708 0.160853,0.103707 0.226463,0.289957 0.266677,-0.393665 0.694206,-0.393665 0.334403,0 0.514304,0.18625 0.179901,0.184134 0.179901,0.569333 v 1.542914 h -0.37885 v -1.415925 q 0,-0.22858 -0.0381,-0.328054 -0.03598,-0.101591 -0.133338,-0.162969 -0.09736,-0.06138 -0.22858,-0.06138 -0.237045,0 -0.393665,0.158736 -0.156619,0.156619 -0.156619,0.503722 v 1.305868 h -0.380966 v -1.460371 q 0,-0.253977 -0.09313,-0.380966 -0.09312,-0.126989 -0.304773,-0.126989 -0.160852,0 -0.298423,0.08466 -0.135455,0.08466 -0.196833,0.247628 -0.06138,0.162969 -0.06138,0.469859 v 1.16618 z m 3.610714,0.861407 v -3.109108 h 0.347103 v 0.292074 q 0.122755,-0.171435 0.277258,-0.256094 0.154503,-0.08678 0.374617,-0.08678 0.287841,0 0.507955,0.148154 0.220114,0.148153 0.332288,0.419063 0.112173,0.268793 0.112173,0.590497 0,0.344987 -0.124872,0.622245 -0.122756,0.275143 -0.359802,0.423296 -0.234929,0.146037 -0.495256,0.146037 -0.190483,0 -0.34287,-0.08043 -0.15027,-0.08043 -0.247628,-0.203182 v 1.09422 z m 0.344986,-1.972559 q 0,0.433878 0.175668,0.641293 0.175668,0.207415 0.425412,0.207415 0.253978,0 0.433879,-0.213764 0.182017,-0.215881 0.182017,-0.666691 0,-0.429645 -0.177784,-0.64341 -0.175668,-0.213764 -0.42118,-0.213764 -0.243395,0 -0.431762,0.22858 -0.18625,0.226463 -0.18625,0.660341 z m 2.057218,1.111152 v -3.102759 h 0.380967 v 3.102759 z m 2.510145,-0.723836 0.393665,0.04868 q -0.09313,0.344986 -0.344986,0.535469 -0.251861,0.190483 -0.64341,0.190483 -0.493139,0 -0.783097,-0.302656 -0.287841,-0.304773 -0.287841,-0.852941 0,-0.567217 0.292074,-0.880456 0.292074,-0.313239 0.7577,-0.313239 0.45081,0 0.736535,0.30689 0.285724,0.306889 0.285724,0.863523 0,0.03386 -0.0021,0.101591 h -1.676252 q 0.02116,0.370384 0.209531,0.567217 0.188367,0.196832 0.469859,0.196832 0.209531,0 0.357685,-0.110056 0.148154,-0.110057 0.234929,-0.351336 z m -1.250839,-0.615896 h 1.255072 q -0.0254,-0.283608 -0.14392,-0.425412 -0.182018,-0.220114 -0.471975,-0.220114 -0.262444,0 -0.442345,0.175668 -0.177784,0.175668 -0.196832,0.469858 z m 1.86885,1.339732 0.821194,-1.168297 -0.759816,-1.079404 h 0.476208 l 0.344986,0.527003 q 0.09736,0.15027 0.15662,0.251861 0.09313,-0.139687 0.171435,-0.247628 l 0.378849,-0.531236 h 0.455044 l -0.776748,1.058239 0.836009,1.189462 h -0.467742 l -0.461392,-0.698438 -0.122756,-0.188367 -0.590498,0.886805 z m 3.959935,-0.723836 0.393665,0.04868 q -0.09313,0.344986 -0.344986,0.535469 -0.251861,0.190483 -0.64341,0.190483 -0.49314,0 -0.783097,-0.302656 -0.287841,-0.304773 -0.287841,-0.852941 0,-0.567217 0.292074,-0.880456 0.292074,-0.313239 0.757699,-0.313239 0.45081,0 0.736535,0.30689 0.285725,0.306889 0.285725,0.863523 0,0.03386 -0.0021,0.101591 h -1.676251 q 0.02117,0.370384 0.209531,0.567217 0.188367,0.196832 0.469859,0.196832 0.209531,0 0.357685,-0.110056 0.148153,-0.110057 0.234929,-0.351336 z m -1.250839,-0.615896 h 1.255072 q -0.0254,-0.283608 -0.143921,-0.425412 -0.182017,-0.220114 -0.471975,-0.220114 -0.262443,0 -0.442344,0.175668 -0.177784,0.175668 -0.196832,0.469858 z m 5.411837,-1.763027 h 0.410597 v 1.792658 q 0,0.467742 -0.105824,0.742884 -0.105824,0.275143 -0.383083,0.448694 -0.275142,0.171435 -0.723836,0.171435 -0.435995,0 -0.713253,-0.15027 -0.277259,-0.15027 -0.395782,-0.433878 -0.118523,-0.285725 -0.118523,-0.778865 v -1.792658 h 0.410597 v 1.790542 q 0,0.404247 0.07408,0.596847 0.07619,0.190483 0.25821,0.29419 0.184134,0.103708 0.448694,0.103708 0.452927,0 0.645526,-0.205299 0.1926,-0.205298 0.1926,-0.789446 z m 1.04554,3.102759 v -2.247701 h 0.342869 v 0.319588 q 0.247628,-0.370384 0.71537,-0.370384 0.203182,0 0.372501,0.07408 0.171435,0.07196 0.256094,0.190483 0.08466,0.118523 0.118523,0.281492 0.02116,0.105824 0.02116,0.370384 v 1.382061 h -0.380966 v -1.367246 q 0,-0.232813 -0.04445,-0.347102 -0.04445,-0.116407 -0.158736,-0.184134 -0.112173,-0.06984 -0.26456,-0.06984 -0.243395,0 -0.421179,0.154503 -0.175668,0.154503 -0.175668,0.586265 v 1.227558 z m 2.340827,0.18625 0.370384,0.05503 q 0.02328,0.171434 0.129105,0.249744 0.141804,0.105824 0.387316,0.105824 0.26456,0 0.40848,-0.105824 0.143921,-0.105824 0.194717,-0.296307 0.02963,-0.116406 0.02751,-0.488907 -0.249745,0.294191 -0.622245,0.294191 -0.463509,0 -0.717487,-0.334404 -0.253977,-0.334404 -0.253977,-0.802146 0,-0.321704 0.116406,-0.592614 0.116406,-0.273026 0.33652,-0.421179 0.222231,-0.148154 0.520654,-0.148154 0.397898,0 0.656109,0.321705 v -0.270909 h 0.351336 v 1.942928 q 0,0.524887 -0.107941,0.742884 -0.105824,0.220114 -0.338637,0.347103 -0.230696,0.126989 -0.569333,0.126989 -0.402131,0 -0.649759,-0.182018 -0.247628,-0.1799 -0.239162,-0.543935 z m 0.315355,-1.350314 q 0,0.442344 0.175668,0.645526 0.175668,0.203182 0.440228,0.203182 0.262443,0 0.440228,-0.201065 0.177784,-0.203182 0.177784,-0.634944 0,-0.412713 -0.184134,-0.622245 -0.182017,-0.209531 -0.440227,-0.209531 -0.253978,0 -0.431762,0.207415 -0.177785,0.205298 -0.177785,0.611662 z m 3.703839,0.440228 0.393665,0.04868 q -0.09313,0.344986 -0.344986,0.535469 -0.251861,0.190483 -0.64341,0.190483 -0.49314,0 -0.783097,-0.302656 -0.287842,-0.304773 -0.287842,-0.852941 0,-0.567217 0.292075,-0.880456 0.292074,-0.313239 0.757699,-0.313239 0.45081,0 0.736535,0.30689 0.285725,0.306889 0.285725,0.863523 0,0.03386 -0.0021,0.101591 h -1.676251 q 0.02116,0.370384 0.209531,0.567217 0.188367,0.196832 0.469858,0.196832 0.209532,0 0.357686,-0.110056 0.148153,-0.110057 0.234929,-0.351336 z m -1.25084,-0.615896 h 1.255073 q -0.0254,-0.283608 -0.143921,-0.425412 -0.182017,-0.220114 -0.471975,-0.220114 -0.262443,0 -0.442344,0.175668 -0.177784,0.175668 -0.196833,0.469858 z m 1.921765,1.339732 v -0.309006 l 1.43074,-1.642388 q -0.243395,0.0127 -0.429645,0.0127 h -0.916436 v -0.309006 h 1.837104 v 0.251861 l -1.216975,1.426507 -0.23493,0.260327 q 0.256094,-0.01905 0.480441,-0.01905 h 1.039192 v 0.328054 z m 2.370456,-2.664648 v -0.438111 h 0.380967 v 0.438111 z m 0,2.664648 v -2.247701 h 0.380967 v 2.247701 z m 2.499562,-0.723836 0.393665,0.04868 q -0.09313,0.344986 -0.344986,0.535469 -0.251861,0.190483 -0.64341,0.190483 -0.49314,0 -0.783097,-0.302656 -0.287841,-0.304773 -0.287841,-0.852941 0,-0.567217 0.292074,-0.880456 0.292074,-0.313239 0.757699,-0.313239 0.45081,0 0.736535,0.30689 0.285725,0.306889 0.285725,0.863523 0,0.03386 -0.0021,0.101591 h -1.676251 q 0.02116,0.370384 0.209531,0.567217 0.188367,0.196832 0.469859,0.196832 0.209531,0 0.357685,-0.110056 0.148153,-0.110057 0.234929,-0.351336 z m -1.250839,-0.615896 h 1.255072 q -0.0254,-0.283608 -0.143921,-0.425412 -0.182017,-0.220114 -0.471975,-0.220114 -0.262443,0 -0.442344,0.175668 -0.177784,0.175668 -0.196832,0.469858 z m 2.213838,1.339732 v -1.951394 h -0.33652 v -0.296307 h 0.33652 v -0.239162 q 0,-0.226464 0.04021,-0.336521 0.05503,-0.148153 0.1926,-0.239162 0.139688,-0.09312 0.389432,-0.09312 0.160853,0 0.355569,0.0381 l -0.05714,0.332287 q -0.118523,-0.02116 -0.224347,-0.02116 -0.173551,0 -0.245512,0.07408 -0.07196,0.07408 -0.07196,0.277259 v 0.207415 h 0.438111 v 0.296307 h -0.438111 v 1.951394 z m 2.651949,-0.723836 0.393665,0.04868 q -0.09313,0.344986 -0.344986,0.535469 -0.251861,0.190483 -0.64341,0.190483 -0.493139,0 -0.783097,-0.302656 -0.287841,-0.304773 -0.287841,-0.852941 0,-0.567217 0.292074,-0.880456 0.292074,-0.313239 0.7577,-0.313239 0.45081,0 0.736534,0.30689 0.285725,0.306889 0.285725,0.863523 0,0.03386 -0.0021,0.101591 h -1.676252 q 0.02117,0.370384 0.209531,0.567217 0.188367,0.196832 0.469859,0.196832 0.209531,0 0.357685,-0.110056 0.148153,-0.110057 0.234929,-0.351336 z m -1.250839,-0.615896 h 1.255072 q -0.0254,-0.283608 -0.143921,-0.425412 -0.182017,-0.220114 -0.471974,-0.220114 -0.262444,0 -0.442345,0.175668 -0.177784,0.175668 -0.196832,0.469858 z m 2.118593,1.339732 v -2.247701 h 0.34287 v 0.340753 q 0.131221,-0.239162 0.241278,-0.315356 0.112174,-0.07619 0.245512,-0.07619 0.1926,0 0.391549,0.122756 l -0.131222,0.353452 q -0.139688,-0.08254 -0.279375,-0.08254 -0.124873,0 -0.224347,0.07619 -0.09947,0.07408 -0.141804,0.207415 -0.0635,0.203182 -0.0635,0.44446 v 1.176763 z m 2.120713,0 1.191578,-3.102759 h 0.442344 L 74.29516,18.49642 H 73.827418 L 73.4655,17.556703 h -1.297402 l -0.340753,0.939717 z m 0.895271,-1.274121 h 1.05189 l -0.323821,-0.85929 q -0.148154,-0.391549 -0.220114,-0.64341 -0.05926,0.298423 -0.167202,0.592614 z m 3.760986,1.274121 v -0.330171 q -0.262443,0.380966 -0.713254,0.380966 -0.198949,0 -0.3725,-0.07619 -0.171435,-0.07619 -0.256094,-0.190483 -0.08254,-0.116406 -0.116406,-0.283608 -0.02328,-0.112174 -0.02328,-0.355569 v -1.392643 h 0.380967 v 1.246606 q 0,0.298424 0.02328,0.402131 0.03598,0.15027 0.152387,0.237046 0.116406,0.08466 0.287841,0.08466 0.171435,0 0.321705,-0.08678 0.15027,-0.08889 0.211648,-0.239162 0.06349,-0.152386 0.06349,-0.440227 v -1.204277 h 0.380966 v 2.247701 z m 0.785211,-0.670924 0.376734,-0.05926 q 0.03175,0.226464 0.175667,0.347103 0.146037,0.120639 0.406364,0.120639 0.262444,0 0.389433,-0.105824 0.126988,-0.10794 0.126988,-0.251861 0,-0.129105 -0.112173,-0.203182 -0.07831,-0.0508 -0.389432,-0.129105 -0.419063,-0.105824 -0.582032,-0.182017 -0.160852,-0.07831 -0.245512,-0.213765 -0.08254,-0.137571 -0.08254,-0.302656 0,-0.15027 0.06773,-0.277259 0.06984,-0.129105 0.188367,-0.213764 0.08889,-0.06561 0.241278,-0.110057 0.154503,-0.04656 0.330171,-0.04656 0.26456,0 0.463509,0.07619 0.201066,0.07619 0.296307,0.207415 0.09524,0.129106 0.131222,0.347103 l -0.3725,0.0508 q -0.0254,-0.173552 -0.148154,-0.27091 -0.120639,-0.09736 -0.34287,-0.09736 -0.262443,0 -0.374617,0.08678 -0.112173,0.08678 -0.112173,0.203182 0,0.07408 0.04656,0.133338 0.04656,0.06138 0.146037,0.101591 0.05715,0.02116 0.33652,0.09736 0.404248,0.107941 0.562983,0.177784 0.160853,0.06773 0.251862,0.198949 0.09101,0.131222 0.09101,0.325938 0,0.190483 -0.112173,0.359802 -0.110057,0.167202 -0.319589,0.260327 -0.209531,0.09101 -0.474091,0.09101 -0.438111,0 -0.668808,-0.182017 -0.228579,-0.182017 -0.292074,-0.539702 z m 2.311195,0.670924 v -3.102759 h 0.380967 v 3.102759 z m 0.829663,-1.123851 q 0,-0.624361 0.347103,-0.924901 0.289958,-0.249745 0.706904,-0.249745 0.463509,0 0.7577,0.304773 0.29419,0.302657 0.29419,0.838126 0,0.433878 -0.131221,0.683623 -0.129106,0.247628 -0.37885,0.385199 -0.247628,0.137571 -0.541819,0.137571 -0.471975,0 -0.764049,-0.302656 -0.289958,-0.302657 -0.289958,-0.87199 z m 0.391549,0 q 0,0.431762 0.188367,0.647643 0.188366,0.213764 0.474091,0.213764 0.283608,0 0.471975,-0.21588 0.188367,-0.215881 0.188367,-0.658226 0,-0.416946 -0.190483,-0.63071 -0.188367,-0.215881 -0.469859,-0.215881 -0.285725,0 -0.474091,0.213764 -0.188367,0.213765 -0.188367,0.645526 z m 0.06773,-1.564078 v -0.433878 h 0.397899 v 0.433878 z m 0.789447,0 v -0.433878 h 0.397898 v 0.433878 z m 1.151362,2.017005 0.376734,-0.05926 q 0.03175,0.226464 0.175668,0.347103 0.146037,0.120639 0.406364,0.120639 0.262443,0 0.389432,-0.105824 0.126989,-0.10794 0.126989,-0.251861 0,-0.129105 -0.112174,-0.203182 -0.07831,-0.0508 -0.389432,-0.129105 -0.419063,-0.105824 -0.582032,-0.182017 -0.160852,-0.07831 -0.245512,-0.213765 -0.08254,-0.137571 -0.08254,-0.302656 0,-0.15027 0.06773,-0.277259 0.06984,-0.129105 0.188367,-0.213764 0.08889,-0.06561 0.241278,-0.110057 0.154503,-0.04656 0.330171,-0.04656 0.26456,0 0.463509,0.07619 0.201066,0.07619 0.296307,0.207415 0.09524,0.129106 0.131222,0.347103 l -0.3725,0.0508 q -0.0254,-0.173552 -0.148154,-0.27091 -0.120639,-0.09736 -0.34287,-0.09736 -0.262443,0 -0.374616,0.08678 -0.112174,0.08678 -0.112174,0.203182 0,0.07408 0.04656,0.133338 0.04656,0.06138 0.146037,0.101591 0.05714,0.02116 0.33652,0.09736 0.404248,0.107941 0.562984,0.177784 0.160852,0.06773 0.251861,0.198949 0.09101,0.131222 0.09101,0.325938 0,0.190483 -0.112173,0.359802 -0.110057,0.167202 -0.319589,0.260327 -0.209531,0.09101 -0.474091,0.09101 -0.438111,0 -0.668807,-0.182017 -0.22858,-0.182017 -0.292075,-0.539702 z m 3.786382,-0.152387 0.374617,0.04868 q -0.06138,0.387316 -0.315356,0.60743 -0.251861,0.217997 -0.620128,0.217997 -0.461393,0 -0.742885,-0.30054 -0.279375,-0.302656 -0.279375,-0.86564 0,-0.364034 0.120639,-0.63706 0.12064,-0.273026 0.366151,-0.408481 0.247628,-0.137571 0.537586,-0.137571 0.366151,0 0.598964,0.18625 0.232813,0.184134 0.298423,0.524887 l -0.370384,0.05714 q -0.05291,-0.226463 -0.188366,-0.340753 -0.133338,-0.11429 -0.323822,-0.11429 -0.287841,0 -0.467742,0.207415 -0.1799,0.205299 -0.1799,0.651876 0,0.452926 0.173551,0.658225 0.173551,0.205298 0.452927,0.205298 0.224346,0 0.374617,-0.137571 0.15027,-0.137571 0.190483,-0.423296 z m 0.700558,0.823311 v -3.102759 h 0.380966 v 1.113268 q 0.266676,-0.309006 0.67304,-0.309006 0.249745,0 0.433879,0.09948 0.184133,0.09736 0.262443,0.270909 0.08043,0.173551 0.08043,0.503722 v 1.424391 h -0.380966 v -1.424391 q 0,-0.285724 -0.124872,-0.41483 -0.122756,-0.131221 -0.349219,-0.131221 -0.169319,0 -0.319589,0.08889 -0.148153,0.08677 -0.211648,0.237045 -0.06349,0.15027 -0.06349,0.41483 v 1.229675 z m 3.883737,0 v -0.330171 q -0.262444,0.380966 -0.713254,0.380966 -0.198949,0 -0.3725,-0.07619 -0.171435,-0.07619 -0.256094,-0.190483 -0.08254,-0.116406 -0.116407,-0.283608 -0.02328,-0.112174 -0.02328,-0.355569 v -1.392643 h 0.380966 v 1.246606 q 0,0.298424 0.02328,0.402131 0.03598,0.15027 0.152386,0.237046 0.116407,0.08466 0.287841,0.08466 0.171435,0 0.321705,-0.08678 0.15027,-0.08889 0.211648,-0.239162 0.06349,-0.152386 0.06349,-0.440227 v -1.204277 h 0.380966 v 2.247701 z m 0.937601,0 v -2.247701 h 0.34287 v 0.319588 q 0.247628,-0.370384 0.71537,-0.370384 0.203182,0 0.3725,0.07408 0.171435,0.07196 0.256094,0.190483 0.08466,0.118523 0.118523,0.281492 0.02116,0.105824 0.02116,0.370384 v 1.382061 h -0.380966 v -1.367246 q 0,-0.232813 -0.04445,-0.347102 -0.04445,-0.116407 -0.158736,-0.184134 -0.112174,-0.06984 -0.26456,-0.06984 -0.243395,0 -0.42118,0.154503 -0.175667,0.154503 -0.175667,0.586265 v 1.227558 z m 2.340824,0.18625 0.370384,0.05503 q 0.02328,0.171434 0.129105,0.249744 0.141804,0.105824 0.387316,0.105824 0.26456,0 0.40848,-0.105824 0.143921,-0.105824 0.194716,-0.296307 0.02963,-0.116406 0.02752,-0.488907 -0.249745,0.294191 -0.622245,0.294191 -0.463509,0 -0.717487,-0.334404 -0.253977,-0.334404 -0.253977,-0.802146 0,-0.321704 0.116406,-0.592614 0.116406,-0.273026 0.33652,-0.421179 0.222231,-0.148154 0.520654,-0.148154 0.397898,0 0.656109,0.321705 v -0.270909 h 0.351335 v 1.942928 q 0,0.524887 -0.10794,0.742884 -0.105824,0.220114 -0.338637,0.347103 -0.230696,0.126989 -0.569333,0.126989 -0.402131,0 -0.649759,-0.182018 -0.247628,-0.1799 -0.239162,-0.543935 z m 0.315355,-1.350314 q 0,0.442344 0.175668,0.645526 0.175668,0.203182 0.440228,0.203182 0.262443,0 0.440228,-0.201065 0.177784,-0.203182 0.177784,-0.634944 0,-0.412713 -0.184134,-0.622245 -0.182017,-0.209531 -0.440228,-0.209531 -0.253977,0 -0.431761,0.207415 -0.177785,0.205298 -0.177785,0.611662 z m 2.012777,0.49314 0.376734,-0.05926 q 0.03175,0.226464 0.175667,0.347103 0.146038,0.120639 0.406364,0.120639 0.262444,0 0.389433,-0.105824 0.126988,-0.10794 0.126988,-0.251861 0,-0.129105 -0.112173,-0.203182 -0.07831,-0.0508 -0.389432,-0.129105 -0.419063,-0.105824 -0.582032,-0.182017 -0.160852,-0.07831 -0.245512,-0.213765 -0.08254,-0.137571 -0.08254,-0.302656 0,-0.15027 0.06773,-0.277259 0.06984,-0.129105 0.188367,-0.213764 0.08889,-0.06561 0.241278,-0.110057 0.154503,-0.04656 0.330171,-0.04656 0.26456,0 0.463509,0.07619 0.201066,0.07619 0.296307,0.207415 0.09524,0.129106 0.131222,0.347103 l -0.3725,0.0508 q -0.0254,-0.173552 -0.148154,-0.27091 -0.120639,-0.09736 -0.34287,-0.09736 -0.262443,0 -0.374616,0.08678 -0.112174,0.08678 -0.112174,0.203182 0,0.07408 0.04656,0.133338 0.04656,0.06138 0.146037,0.101591 0.05714,0.02116 0.33652,0.09736 0.404248,0.107941 0.562983,0.177784 0.160853,0.06773 0.251862,0.198949 0.09101,0.131222 0.09101,0.325938 0,0.190483 -0.112173,0.359802 -0.110057,0.167202 -0.319589,0.260327 -0.209531,0.09101 -0.474091,0.09101 -0.438111,0 -0.668808,-0.182017 -0.228579,-0.182017 -0.292074,-0.539702 z m 3.555686,0.670924 v -3.102759 h 0.410599 v 1.538681 l 1.54079,-1.538681 h 0.55664 l -1.30164,1.257189 1.35878,1.84557 h -0.54182 l -1.1048,-1.570428 -0.50795,0.495256 v 1.075172 z m 2.861479,-2.664648 v -0.438111 h 0.38096 v 0.438111 z m 0,2.664648 v -2.247701 h 0.38096 v 2.247701 z m 0.96088,0 v -2.247701 h 0.34287 v 0.319588 q 0.24762,-0.370384 0.71537,-0.370384 0.20318,0 0.3725,0.07408 0.17143,0.07196 0.25609,0.190483 0.0847,0.118523 0.11852,0.281492 0.0212,0.105824 0.0212,0.370384 v 1.382061 h -0.38097 v -1.367246 q 0,-0.232813 -0.0444,-0.347102 -0.0444,-0.116407 -0.15874,-0.184134 -0.11217,-0.06984 -0.26456,-0.06984 -0.2434,0 -0.42118,0.154503 Q 104.11,16.8371 104.11,17.268862 v 1.227558 z m 3.94935,-0.723836 0.39367,0.04868 q -0.0931,0.344986 -0.34499,0.535469 -0.25186,0.190483 -0.64341,0.190483 -0.49314,0 -0.7831,-0.302656 -0.28784,-0.304773 -0.28784,-0.852941 0,-0.567217 0.29208,-0.880456 0.29207,-0.313239 0.7577,-0.313239 0.45081,0 0.73653,0.30689 0.28573,0.306889 0.28573,0.863523 0,0.03386 -0.002,0.101591 h -1.67625 q 0.0212,0.370384 0.20953,0.567217 0.18837,0.196832 0.46986,0.196832 0.20953,0 0.35768,-0.110056 0.14816,-0.110057 0.23493,-0.351336 z m -1.25084,-0.615896 h 1.25507 q -0.0254,-0.283608 -0.14392,-0.425412 -0.18201,-0.220114 -0.47197,-0.220114 -0.26244,0 -0.44234,0.175668 -0.17779,0.175668 -0.19684,0.469858 z m 2.12283,1.339732 v -2.247701 h 0.34075 v 0.315355 q 0.10583,-0.165085 0.28149,-0.26456 0.17567,-0.101591 0.40002,-0.101591 0.24974,0 0.40848,0.103708 0.16085,0.103707 0.22646,0.289957 0.26668,-0.393665 0.69421,-0.393665 0.3344,0 0.5143,0.18625 0.1799,0.184134 0.1799,0.569333 v 1.542914 h -0.37885 v -1.415925 q 0,-0.22858 -0.0381,-0.328054 -0.036,-0.101591 -0.13334,-0.162969 -0.0974,-0.06138 -0.22858,-0.06138 -0.23705,0 -0.39367,0.158736 -0.15662,0.156619 -0.15662,0.503722 v 1.305868 h -0.38096 v -1.460371 q 0,-0.253977 -0.0931,-0.380966 -0.0931,-0.126989 -0.30477,-0.126989 -0.16085,0 -0.29842,0.08466 -0.13546,0.08466 -0.19684,0.247628 -0.0614,0.162969 -0.0614,0.469859 v 1.16618 z m 5.07744,-0.277259 q -0.21165,0.179901 -0.40848,0.253978 -0.19472,0.07408 -0.41907,0.07408 -0.37038,0 -0.56933,-0.1799 -0.19895,-0.182018 -0.19895,-0.463509 0,-0.165086 0.0741,-0.30054 0.0762,-0.137572 0.19683,-0.220114 0.12276,-0.08254 0.27514,-0.124873 0.11218,-0.02963 0.33864,-0.05715 0.46139,-0.05503 0.67939,-0.131221 0.002,-0.07831 0.002,-0.09947 0,-0.232813 -0.10794,-0.328054 -0.14604,-0.129105 -0.43388,-0.129105 -0.2688,0 -0.3979,0.09524 -0.12699,0.09313 -0.18837,0.332288 l -0.3725,-0.0508 q 0.0508,-0.239162 0.1672,-0.385199 0.11641,-0.148154 0.33652,-0.226464 0.22012,-0.08043 0.51008,-0.08043 0.28784,0 0.46774,0.06773 0.1799,0.06773 0.26456,0.171434 0.0847,0.101591 0.11852,0.258211 0.019,0.09736 0.019,0.351335 v 0.507956 q 0,0.531236 0.0233,0.67304 0.0254,0.139688 0.0974,0.268793 h -0.3979 q -0.0593,-0.118523 -0.0762,-0.277259 z m -0.0318,-0.850825 q -0.20742,0.08466 -0.62225,0.143921 -0.23492,0.03386 -0.33228,0.07619 -0.0974,0.04233 -0.15027,0.124873 -0.0529,0.08043 -0.0529,0.1799 0,0.152387 0.11429,0.253978 0.1164,0.101591 0.33863,0.101591 0.22012,0 0.39155,-0.09524 0.17144,-0.09736 0.25186,-0.26456 0.0614,-0.129105 0.0614,-0.380966 z m 1.80747,0.787331 0.055,0.33652 q -0.16085,0.03386 -0.28784,0.03386 -0.20742,0 -0.32171,-0.06561 -0.11429,-0.06561 -0.16085,-0.171435 -0.0466,-0.107941 -0.0466,-0.45081 v -1.293169 h -0.27938 v -0.296307 h 0.27938 v -0.556634 l 0.37885,-0.22858 v 0.785214 h 0.38308 v 0.296307 h -0.38308 v 1.314334 q 0,0.162969 0.0191,0.209531 0.0212,0.04656 0.0656,0.07408 0.0466,0.02751 0.13122,0.02751 0.0635,0 0.1672,-0.01481 z m 0.37462,-2.323895 v -0.438111 h 0.38096 v 0.438111 z m 0,2.664648 v -2.247701 h 0.38096 v 2.247701 z m 0.963,0 v -3.102759 h 0.38096 v 1.769377 l 0.90162,-0.914319 h 0.49314 l -0.85929,0.833893 0.94607,1.413808 h -0.46986 l -0.74289,-1.149248 -0.26879,0.25821 v 0.891038 z"
       id="text5"
       style="font-size:4.33455px;font-family:Arial;-inkscape-font-specification:'Arial, Normal';fill:#ffffff;stroke-width:0.266962;stroke-linejoin:round;paint-order:stroke fill markers"
       aria-label="Komplexe Ungeziefer Auslschungs Kinematik" /></g></svg>
